<svg width="12" height="12" viewBox="0 0 12 12" fill="none" xmlns="http://www.w3.org/2000/svg">
<g clip-path="url(#clip0_78_3424)">
<path d="M6.00021 4.80001C5.33841 4.80001 4.80021 5.33821 4.80021 6.00001C4.80021 6.66181 5.33841 7.20001 6.00021 7.20001C6.66201 7.20001 7.20021 6.66181 7.20021 6.00001C7.20021 5.33821 6.66201 4.80001 6.00021 4.80001ZM6.00021 8.40001C4.67661 8.40001 3.60021 7.32361 3.60021 6.00001C3.60021 4.67641 4.67661 3.60001 6.00021 3.60001C7.32381 3.60001 8.40021 4.67641 8.40021 6.00001C8.40021 7.32361 7.32381 8.40001 6.00021 8.40001ZM1.26585 5.99911C1.69305 6.83551 3.30885 9.59971 6.00045 9.59971C8.70225 9.59971 10.3096 6.83731 10.7345 6.00091C10.3073 5.16451 8.69145 2.39971 6.00045 2.39971C3.29865 2.39971 1.69065 5.16211 1.26585 5.99911ZM6.00045 10.7997C2.05005 10.7997 0.12825 6.42271 0.04905 6.23671C-0.01635 6.08551 -0.01635 5.91451 0.04905 5.76331C0.12825 5.57731 2.05005 1.19971 6.00045 1.19971C9.95085 1.19971 11.872 5.57731 11.9518 5.76331C12.0166 5.91451 12.0166 6.08551 11.9518 6.23671C11.872 6.42271 9.95085 10.7997 6.00045 10.7997Z" fill="black"/>
</g>
<defs>
<clipPath id="clip0_78_3424">
<rect width="12" height="12" fill="white"/>
</clipPath>
</defs>
</svg>
