<svg width="12" height="12" viewBox="0 0 12 12" fill="none" xmlns="http://www.w3.org/2000/svg">
<g clip-path="url(#clip0_36_28)">
<path d="M5.99997 4.80001C5.33817 4.80001 4.79997 5.33821 4.79997 6.00001C4.79997 6.66181 5.33817 7.20001 5.99997 7.20001C6.66177 7.20001 7.19997 6.66181 7.19997 6.00001C7.19997 5.33821 6.66177 4.80001 5.99997 4.80001ZM5.99997 8.40001C4.67637 8.40001 3.59997 7.32361 3.59997 6.00001C3.59997 4.67641 4.67637 3.60001 5.99997 3.60001C7.32357 3.60001 8.39997 4.67641 8.39997 6.00001C8.39997 7.32361 7.32357 8.40001 5.99997 8.40001ZM1.26561 5.99911C1.69281 6.83551 3.30861 9.59971 6.00021 9.59971C8.70201 9.59971 10.3094 6.83731 10.7342 6.00091C10.307 5.16451 8.69121 2.39971 6.00021 2.39971C3.29841 2.39971 1.69041 5.16211 1.26561 5.99911ZM6.00021 10.7997C2.04981 10.7997 0.128006 6.42271 0.0488059 6.23671C-0.0165941 6.08551 -0.0165941 5.91451 0.0488059 5.76331C0.128006 5.57731 2.04981 1.19971 6.00021 1.19971C9.95061 1.19971 11.8718 5.57731 11.9516 5.76331C12.0164 5.91451 12.0164 6.08551 11.9516 6.23671C11.8718 6.42271 9.95061 10.7997 6.00021 10.7997Z" fill="#0F1941"/>
</g>
<defs>
<clipPath id="clip0_36_28">
<rect width="12" height="12" fill="white"/>
</clipPath>
</defs>
</svg>
