<svg width="122" height="35" viewBox="0 0 122 35" fill="none" xmlns="http://www.w3.org/2000/svg">
<path d="M0 0H104.5C114.165 0 122 7.83502 122 17.5C122 27.165 114.165 35 104.5 35H0V0Z" fill="#2175D9" fill-opacity="0.7"/>
<path d="M21.7266 24.2109C20.9661 24.2109 20.2656 24.0833 19.625 23.8281C18.9896 23.5729 18.4401 23.1927 17.9766 22.6875C17.513 22.1823 17.1536 21.5521 16.8984 20.7969C16.6432 20.0417 16.5156 19.1745 16.5156 18.1953C16.5156 17.2214 16.638 16.3724 16.8828 15.6484C17.1328 14.9245 17.4948 14.2943 17.9688 13.7578C18.4323 13.237 18.9818 12.8411 19.6172 12.5703C20.2526 12.2943 20.9635 12.1562 21.75 12.1562C22.1406 12.1562 22.5052 12.1849 22.8438 12.2422C23.1875 12.2995 23.5052 12.3724 23.7969 12.4609C24.0469 12.5391 24.3021 12.638 24.5625 12.7578C24.8281 12.8724 25.0885 13 25.3438 13.1406V15.0078H25.2188C25.0833 14.8828 24.9089 14.7318 24.6953 14.5547C24.4818 14.3776 24.2214 14.2031 23.9141 14.0312C23.6172 13.8698 23.2943 13.737 22.9453 13.6328C22.5964 13.5286 22.1927 13.4766 21.7344 13.4766C21.2396 13.4766 20.7708 13.5781 20.3281 13.7812C19.8854 13.9844 19.4974 14.2839 19.1641 14.6797C18.8359 15.0755 18.5807 15.5729 18.3984 16.1719C18.2161 16.7708 18.125 17.4453 18.125 18.1953C18.125 18.9922 18.2214 19.6797 18.4141 20.2578C18.6068 20.8307 18.8698 21.3151 19.2031 21.7109C19.526 22.0964 19.9062 22.388 20.3438 22.5859C20.7812 22.7786 21.2448 22.875 21.7344 22.875C22.1823 22.875 22.5964 22.8203 22.9766 22.7109C23.3568 22.6016 23.6953 22.4635 23.9922 22.2969C24.2786 22.1354 24.526 21.9714 24.7344 21.8047C24.9427 21.6328 25.1068 21.487 25.2266 21.3672H25.3438V23.2109C25.0885 23.3307 24.8464 23.4453 24.6172 23.5547C24.3932 23.6641 24.1198 23.7708 23.7969 23.875C23.4583 23.9844 23.1432 24.0677 22.8516 24.125C22.5651 24.1823 22.1901 24.2109 21.7266 24.2109ZM30.4609 24.2031C29.0703 24.2031 27.9896 23.8125 27.2188 23.0312C26.4531 22.2448 26.0703 21.1302 26.0703 19.6875C26.0703 18.2656 26.4427 17.1354 27.1875 16.2969C27.9323 15.4531 28.9062 15.0312 30.1094 15.0312C30.651 15.0312 31.1302 15.1094 31.5469 15.2656C31.9635 15.4219 32.3281 15.6667 32.6406 16C32.9531 16.3333 33.1927 16.7422 33.3594 17.2266C33.526 17.7057 33.6094 18.2943 33.6094 18.9922V19.7891H27.5625C27.5625 20.8047 27.8177 21.5807 28.3281 22.1172C28.8385 22.6536 29.5443 22.9219 30.4453 22.9219C30.7682 22.9219 31.0833 22.8854 31.3906 22.8125C31.7031 22.7396 31.9844 22.6458 32.2344 22.5312C32.5 22.4115 32.724 22.2969 32.9062 22.1875C33.0885 22.0729 33.2396 21.9661 33.3594 21.8672H33.4453V23.4688C33.2734 23.5365 33.0599 23.6224 32.8047 23.7266C32.5495 23.8255 32.3203 23.9036 32.1172 23.9609C31.8307 24.0391 31.5703 24.099 31.3359 24.1406C31.1068 24.1823 30.8151 24.2031 30.4609 24.2031ZM32.1797 18.6641C32.1693 18.2682 32.1224 17.9271 32.0391 17.6406C31.9557 17.3542 31.8359 17.112 31.6797 16.9141C31.5078 16.6953 31.2865 16.5286 31.0156 16.4141C30.75 16.2995 30.4193 16.2422 30.0234 16.2422C29.6328 16.2422 29.2995 16.3021 29.0234 16.4219C28.7526 16.5365 28.5052 16.7057 28.2812 16.9297C28.0625 17.1589 27.8958 17.4141 27.7812 17.6953C27.6667 17.9714 27.5938 18.2943 27.5625 18.6641H32.1797ZM50 24V18.9531C50 18.5521 49.9844 18.1823 49.9531 17.8438C49.9219 17.5 49.8568 17.2318 49.7578 17.0391C49.6536 16.8307 49.5052 16.6771 49.3125 16.5781C49.1198 16.4792 48.8594 16.4297 48.5312 16.4297C48.2292 16.4297 47.9036 16.5234 47.5547 16.7109C47.2109 16.8932 46.8542 17.1589 46.4844 17.5078C46.4896 17.5964 46.4948 17.7031 46.5 17.8281C46.5104 17.9479 46.5156 18.0911 46.5156 18.2578V24H45.0469V18.9531C45.0469 18.5521 45.0312 18.1823 45 17.8438C44.9688 17.5 44.9036 17.2318 44.8047 17.0391C44.7005 16.8307 44.5521 16.6771 44.3594 16.5781C44.1667 16.4792 43.9062 16.4297 43.5781 16.4297C43.2604 16.4297 42.9271 16.5286 42.5781 16.7266C42.2292 16.9245 41.8906 17.1771 41.5625 17.4844V24H40.0938V15.2734H41.5625V16.2422C41.9479 15.8568 42.3281 15.5599 42.7031 15.3516C43.0833 15.138 43.5 15.0312 43.9531 15.0312C44.4688 15.0312 44.9245 15.1484 45.3203 15.3828C45.7214 15.6172 46.026 16.0026 46.2344 16.5391C46.6771 16.0443 47.1094 15.6693 47.5312 15.4141C47.9531 15.1589 48.4115 15.0312 48.9062 15.0312C49.2812 15.0312 49.6224 15.0911 49.9297 15.2109C50.237 15.3255 50.5052 15.513 50.7344 15.7734C50.9688 16.0391 51.1484 16.3698 51.2734 16.7656C51.4036 17.1615 51.4688 17.6589 51.4688 18.2578V24H50ZM60.7109 19.6406C60.7109 21.1094 60.3568 22.2448 59.6484 23.0469C58.9401 23.8438 57.9974 24.2422 56.8203 24.2422C55.6068 24.2422 54.651 23.8307 53.9531 23.0078C53.2604 22.1797 52.9141 21.0573 52.9141 19.6406C52.9141 18.1823 53.2708 17.0495 53.9844 16.2422C54.7031 15.4349 55.6484 15.0312 56.8203 15.0312C57.9974 15.0312 58.9401 15.4349 59.6484 16.2422C60.3568 17.0443 60.7109 18.1771 60.7109 19.6406ZM59.1953 19.6406C59.1953 18.5104 58.9896 17.6719 58.5781 17.125C58.1667 16.5729 57.5807 16.2969 56.8203 16.2969C56.0547 16.2969 55.4635 16.5729 55.0469 17.125C54.6354 17.6719 54.4297 18.5104 54.4297 19.6406C54.4297 20.7344 54.6354 21.5651 55.0469 22.1328C55.4635 22.6953 56.0547 22.9766 56.8203 22.9766C57.5755 22.9766 58.1589 22.7005 58.5703 22.1484C58.987 21.5911 59.1953 20.7552 59.1953 19.6406ZM63.7188 24H62.25V15.2734H63.7188V24ZM63.8203 13.8125H62.1484V12.2891H63.8203V13.8125ZM69.9219 19.6172H65.5156V18.2031H69.9219V19.6172ZM75.1562 24.1953C74.5573 24.1953 74.0078 24.1042 73.5078 23.9219C73.0078 23.7344 72.5781 23.4531 72.2188 23.0781C71.8594 22.7031 71.5807 22.2318 71.3828 21.6641C71.1849 21.0911 71.0859 20.4193 71.0859 19.6484C71.0859 18.8828 71.1875 18.2214 71.3906 17.6641C71.599 17.1068 71.875 16.638 72.2188 16.2578C72.5625 15.8776 72.9896 15.5859 73.5 15.3828C74.0156 15.1745 74.5677 15.0703 75.1562 15.0703C75.6354 15.0703 76.0964 15.138 76.5391 15.2734C76.987 15.4089 77.3854 15.5651 77.7344 15.7422V17.3906H77.6484C77.5443 17.3021 77.4089 17.2005 77.2422 17.0859C77.0807 16.9714 76.8828 16.8542 76.6484 16.7344C76.4453 16.6302 76.2057 16.5391 75.9297 16.4609C75.6536 16.3828 75.388 16.3438 75.1328 16.3438C74.3724 16.3438 73.7604 16.6328 73.2969 17.2109C72.8385 17.7839 72.6094 18.5964 72.6094 19.6484C72.6094 20.6797 72.8307 21.4844 73.2734 22.0625C73.7214 22.6354 74.3411 22.9219 75.1328 22.9219C75.612 22.9219 76.0677 22.8229 76.5 22.625C76.9323 22.4271 77.3151 22.1719 77.6484 21.8594H77.7344V23.5078C77.5885 23.5755 77.4062 23.6589 77.1875 23.7578C76.9688 23.8516 76.7708 23.9219 76.5938 23.9688C76.3438 24.0417 76.1198 24.0964 75.9219 24.1328C75.724 24.1745 75.4688 24.1953 75.1562 24.1953ZM80.5781 24H79.1094V15.2734H80.5781V24ZM80.6797 13.8125H79.0078V12.2891H80.6797V13.8125Z" fill="white"/>
<path d="M91.5999 20.3C91.5999 20.06 91.6799 19.9 91.8399 19.74L97.4399 14.14C97.7599 13.82 98.2399 13.82 98.5599 14.14L104.16 19.74C104.48 20.06 104.48 20.54 104.16 20.86C103.84 21.18 103.36 21.18 103.04 20.86L97.9999 15.82L92.9599 20.86C92.6399 21.18 92.1599 21.18 91.8399 20.86C91.6799 20.7 91.5999 20.54 91.5999 20.3Z" fill="white"/>
</svg>
