<svg width="130" height="35" viewBox="0 0 130 35" fill="none" xmlns="http://www.w3.org/2000/svg">
<path d="M0 0H112.5C122.165 0 130 7.83502 130 17.5C130 27.165 122.165 35 112.5 35H0V0Z" fill="#2175D9" fill-opacity="0.7"/>
<path d="M27.1484 24H25.6016V13.9766L22.5703 20.7969H21.6328L18.625 13.9766V24H17.1797V12.3672H19.2891L22.1953 18.8438L25 12.3672H27.1484V24ZM34.2656 21.8516V19.4297C33.9167 19.4609 33.474 19.5052 32.9375 19.5625C32.4062 19.6146 31.9766 19.6901 31.6484 19.7891C31.2578 19.9089 30.9349 20.0938 30.6797 20.3438C30.4245 20.5885 30.2969 20.9323 30.2969 21.375C30.2969 21.875 30.4375 22.2526 30.7188 22.5078C31 22.763 31.4115 22.8906 31.9531 22.8906C32.4167 22.8906 32.8359 22.7917 33.2109 22.5938C33.5859 22.3906 33.9375 22.1432 34.2656 21.8516ZM34.2656 23.0703C34.1458 23.1589 33.9844 23.2839 33.7812 23.4453C33.5833 23.6016 33.3906 23.7266 33.2031 23.8203C32.9427 23.9557 32.6901 24.0599 32.4453 24.1328C32.2057 24.2057 31.8672 24.2422 31.4297 24.2422C31.0703 24.2422 30.7292 24.1745 30.4062 24.0391C30.0833 23.9036 29.7995 23.7135 29.5547 23.4688C29.3203 23.2292 29.1328 22.9349 28.9922 22.5859C28.8516 22.2318 28.7812 21.8594 28.7812 21.4688C28.7812 20.8646 28.9089 20.3516 29.1641 19.9297C29.4193 19.5026 29.8229 19.1641 30.375 18.9141C30.8646 18.6901 31.4427 18.5365 32.1094 18.4531C32.776 18.3646 33.4948 18.2995 34.2656 18.2578V17.9766C34.2656 17.6328 34.2135 17.3568 34.1094 17.1484C34.0052 16.9349 33.8594 16.7708 33.6719 16.6562C33.4844 16.5365 33.2552 16.4583 32.9844 16.4219C32.7135 16.3802 32.4349 16.3594 32.1484 16.3594C31.8099 16.3594 31.4115 16.4115 30.9531 16.5156C30.4948 16.6146 30.0365 16.7604 29.5781 16.9531H29.4922V15.4609C29.763 15.3828 30.151 15.2969 30.6562 15.2031C31.1615 15.1094 31.6615 15.0625 32.1562 15.0625C32.7552 15.0625 33.2604 15.1094 33.6719 15.2031C34.0833 15.2969 34.4531 15.4661 34.7812 15.7109C35.099 15.9505 35.3359 16.2604 35.4922 16.6406C35.6484 17.0208 35.7266 17.4844 35.7266 18.0312V24H34.2656V23.0703ZM42.4219 16.8516H42.3438C42.2344 16.8203 42.1172 16.8021 41.9922 16.7969C41.8724 16.7865 41.7266 16.7812 41.5547 16.7812C41.1589 16.7812 40.7656 16.8672 40.375 17.0391C39.9844 17.2109 39.6146 17.4661 39.2656 17.8047V24H37.7969V15.2734H39.2656V16.5703C39.8021 16.0964 40.2682 15.763 40.6641 15.5703C41.0651 15.3724 41.4531 15.2734 41.8281 15.2734C41.9792 15.2734 42.0911 15.2786 42.1641 15.2891C42.2422 15.2943 42.3281 15.3047 42.4219 15.3203V16.8516ZM45.9219 24.2109C45.3385 24.2109 44.7917 24.1328 44.2812 23.9766C43.776 23.8203 43.3568 23.6536 43.0234 23.4766V21.8281H43.1016C43.2266 21.9271 43.3724 22.0365 43.5391 22.1562C43.7109 22.276 43.9375 22.401 44.2188 22.5312C44.4688 22.6458 44.7422 22.7474 45.0391 22.8359C45.3411 22.9245 45.6536 22.9688 45.9766 22.9688C46.2109 22.9688 46.4609 22.9427 46.7266 22.8906C46.9922 22.8333 47.1901 22.763 47.3203 22.6797C47.5026 22.5599 47.6328 22.4323 47.7109 22.2969C47.7943 22.1615 47.8359 21.9583 47.8359 21.6875C47.8359 21.3385 47.7396 21.0755 47.5469 20.8984C47.3594 20.7214 47.0234 20.5729 46.5391 20.4531C46.3516 20.4062 46.1068 20.3516 45.8047 20.2891C45.5026 20.2266 45.224 20.1589 44.9688 20.0859C44.3021 19.8932 43.8177 19.5964 43.5156 19.1953C43.2135 18.7891 43.0625 18.2995 43.0625 17.7266C43.0625 16.9401 43.3594 16.2995 43.9531 15.8047C44.5469 15.3099 45.3359 15.0625 46.3203 15.0625C46.8047 15.0625 47.2917 15.1224 47.7812 15.2422C48.2708 15.362 48.6823 15.513 49.0156 15.6953V17.2656H48.9375C48.5625 16.9688 48.1432 16.7344 47.6797 16.5625C47.2214 16.3906 46.7578 16.3047 46.2891 16.3047C45.8047 16.3047 45.3958 16.4062 45.0625 16.6094C44.7292 16.8125 44.5625 17.1198 44.5625 17.5312C44.5625 17.8958 44.6615 18.1693 44.8594 18.3516C45.0573 18.5286 45.375 18.6745 45.8125 18.7891C46.0312 18.8464 46.2734 18.9036 46.5391 18.9609C46.8099 19.013 47.0938 19.0755 47.3906 19.1484C48.0365 19.3099 48.5208 19.5781 48.8438 19.9531C49.1719 20.3281 49.3359 20.8385 49.3359 21.4844C49.3359 21.8594 49.2604 22.2161 49.1094 22.5547C48.9635 22.888 48.7474 23.1745 48.4609 23.4141C48.1484 23.6745 47.7943 23.8724 47.3984 24.0078C47.0078 24.1432 46.5156 24.2109 45.9219 24.2109ZM62.6719 24H55.4922V22.3672C56.0078 21.8776 56.4948 21.4089 56.9531 20.9609C57.4115 20.513 57.8594 20.0469 58.2969 19.5625C59.1823 18.5885 59.7865 17.8099 60.1094 17.2266C60.4323 16.638 60.5938 16.0312 60.5938 15.4062C60.5938 15.0833 60.5417 14.7995 60.4375 14.5547C60.3385 14.3099 60.2005 14.1068 60.0234 13.9453C59.8411 13.7891 59.6302 13.6719 59.3906 13.5938C59.151 13.5156 58.888 13.4766 58.6016 13.4766C58.3255 13.4766 58.0443 13.513 57.7578 13.5859C57.4766 13.6536 57.2057 13.7396 56.9453 13.8438C56.7266 13.9323 56.5156 14.0391 56.3125 14.1641C56.1094 14.2891 55.9453 14.3958 55.8203 14.4844H55.7344V12.8281C56.0573 12.6667 56.5052 12.5104 57.0781 12.3594C57.6562 12.2031 58.2031 12.125 58.7188 12.125C59.8021 12.125 60.651 12.4141 61.2656 12.9922C61.8802 13.5651 62.1875 14.3438 62.1875 15.3281C62.1875 15.7812 62.1328 16.2005 62.0234 16.5859C61.9193 16.9714 61.7734 17.3281 61.5859 17.6562C61.3932 17.9948 61.1615 18.3307 60.8906 18.6641C60.6198 18.9974 60.3333 19.3255 60.0312 19.6484C59.5417 20.1797 58.9948 20.7318 58.3906 21.3047C57.7917 21.8776 57.3125 22.3307 56.9531 22.6641H62.6719V24ZM71.4609 18.1797C71.4609 20.2682 71.1562 21.8021 70.5469 22.7812C69.9427 23.7552 69.0078 24.2422 67.7422 24.2422C66.4609 24.2422 65.5208 23.7448 64.9219 22.75C64.3229 21.7552 64.0234 20.237 64.0234 18.1953C64.0234 16.0964 64.3255 14.5625 64.9297 13.5938C65.5391 12.6198 66.4766 12.1328 67.7422 12.1328C69.0234 12.1328 69.9635 12.6354 70.5625 13.6406C71.1615 14.6458 71.4609 16.1589 71.4609 18.1797ZM69.4609 21.7266C69.612 21.3411 69.7188 20.8542 69.7812 20.2656C69.8438 19.6771 69.875 18.9818 69.875 18.1797C69.875 17.3828 69.8438 16.6901 69.7812 16.1016C69.7188 15.513 69.6094 15.0234 69.4531 14.6328C69.2969 14.237 69.0807 13.9375 68.8047 13.7344C68.5339 13.526 68.1797 13.4219 67.7422 13.4219C67.3099 13.4219 66.9531 13.526 66.6719 13.7344C66.3958 13.9375 66.1771 14.2422 66.0156 14.6484C65.8594 15.0443 65.7526 15.5443 65.6953 16.1484C65.638 16.7526 65.6094 17.4349 65.6094 18.1953C65.6094 19.0078 65.6328 19.6875 65.6797 20.2344C65.7318 20.7812 65.8411 21.2708 66.0078 21.7031C66.1589 22.1042 66.3724 22.4141 66.6484 22.6328C66.9297 22.8464 67.2943 22.9531 67.7422 22.9531C68.1745 22.9531 68.5286 22.8516 68.8047 22.6484C69.0859 22.4401 69.3047 22.1328 69.4609 21.7266ZM80.1406 24H72.9609V22.3672C73.4766 21.8776 73.9635 21.4089 74.4219 20.9609C74.8802 20.513 75.3281 20.0469 75.7656 19.5625C76.651 18.5885 77.2552 17.8099 77.5781 17.2266C77.901 16.638 78.0625 16.0312 78.0625 15.4062C78.0625 15.0833 78.0104 14.7995 77.9062 14.5547C77.8073 14.3099 77.6693 14.1068 77.4922 13.9453C77.3099 13.7891 77.099 13.6719 76.8594 13.5938C76.6198 13.5156 76.3568 13.4766 76.0703 13.4766C75.7943 13.4766 75.513 13.513 75.2266 13.5859C74.9453 13.6536 74.6745 13.7396 74.4141 13.8438C74.1953 13.9323 73.9844 14.0391 73.7812 14.1641C73.5781 14.2891 73.4141 14.3958 73.2891 14.4844H73.2031V12.8281C73.526 12.6667 73.974 12.5104 74.5469 12.3594C75.125 12.2031 75.6719 12.125 76.1875 12.125C77.2708 12.125 78.1198 12.4141 78.7344 12.9922C79.349 13.5651 79.6562 14.3438 79.6562 15.3281C79.6562 15.7812 79.6016 16.2005 79.4922 16.5859C79.388 16.9714 79.2422 17.3281 79.0547 17.6562C78.862 17.9948 78.6302 18.3307 78.3594 18.6641C78.0885 18.9974 77.8021 19.3255 77.5 19.6484C77.0104 20.1797 76.4635 20.7318 75.8594 21.3047C75.2604 21.8776 74.7812 22.3307 74.4219 22.6641H80.1406V24ZM88.875 24H81.6953V22.3672C82.2109 21.8776 82.6979 21.4089 83.1562 20.9609C83.6146 20.513 84.0625 20.0469 84.5 19.5625C85.3854 18.5885 85.9896 17.8099 86.3125 17.2266C86.6354 16.638 86.7969 16.0312 86.7969 15.4062C86.7969 15.0833 86.7448 14.7995 86.6406 14.5547C86.5417 14.3099 86.4036 14.1068 86.2266 13.9453C86.0443 13.7891 85.8333 13.6719 85.5938 13.5938C85.3542 13.5156 85.0911 13.4766 84.8047 13.4766C84.5286 13.4766 84.2474 13.513 83.9609 13.5859C83.6797 13.6536 83.4089 13.7396 83.1484 13.8438C82.9297 13.9323 82.7188 14.0391 82.5156 14.1641C82.3125 14.2891 82.1484 14.3958 82.0234 14.4844H81.9375V12.8281C82.2604 12.6667 82.7083 12.5104 83.2812 12.3594C83.8594 12.2031 84.4062 12.125 84.9219 12.125C86.0052 12.125 86.8542 12.4141 87.4688 12.9922C88.0833 13.5651 88.3906 14.3438 88.3906 15.3281C88.3906 15.7812 88.3359 16.2005 88.2266 16.5859C88.1224 16.9714 87.9766 17.3281 87.7891 17.6562C87.5964 17.9948 87.3646 18.3307 87.0938 18.6641C86.8229 18.9974 86.5365 19.3255 86.2344 19.6484C85.7448 20.1797 85.1979 20.7318 84.5938 21.3047C83.9948 21.8776 83.5156 22.3307 83.1562 22.6641H88.875V24Z" fill="white"/>
<path d="M99.5999 20.3001C99.5999 20.0601 99.6799 19.9001 99.8399 19.7401L105.44 14.1401C105.76 13.8201 106.24 13.8201 106.56 14.1401L112.16 19.7401C112.48 20.0601 112.48 20.5401 112.16 20.8601C111.84 21.1801 111.36 21.1801 111.04 20.8601L106 15.8201L100.96 20.8601C100.64 21.1801 100.16 21.1801 99.8399 20.8601C99.6799 20.7001 99.5999 20.5401 99.5999 20.3001Z" fill="white"/>
</svg>
