<svg width="146" height="35" viewBox="0 0 146 35" fill="none" xmlns="http://www.w3.org/2000/svg">
<path d="M0 0H128.5C138.165 0 146 7.83502 146 17.5C146 27.165 138.165 35 128.5 35H0V0Z" fill="#2175D9" fill-opacity="0.7"/>
<path d="M21.5625 20.9766C21.5625 21.9974 21.25 22.7839 20.625 23.3359C20.0052 23.888 19.1719 24.1641 18.125 24.1641C17.875 24.1641 17.5391 24.1406 17.1172 24.0938C16.7005 24.0521 16.3516 24 16.0703 23.9375V22.4609H16.1562C16.3698 22.5339 16.6328 22.6146 16.9453 22.7031C17.263 22.7917 17.5859 22.8359 17.9141 22.8359C18.3932 22.8359 18.7734 22.7812 19.0547 22.6719C19.3411 22.5625 19.5521 22.4062 19.6875 22.2031C19.8281 21.9948 19.9167 21.7396 19.9531 21.4375C19.9948 21.1354 20.0156 20.7865 20.0156 20.3906V13.6016H17.5547V12.3672H21.5625V20.9766ZM28.6094 21.8516V19.4297C28.2604 19.4609 27.8177 19.5052 27.2812 19.5625C26.75 19.6146 26.3203 19.6901 25.9922 19.7891C25.6016 19.9089 25.2786 20.0938 25.0234 20.3438C24.7682 20.5885 24.6406 20.9323 24.6406 21.375C24.6406 21.875 24.7812 22.2526 25.0625 22.5078C25.3438 22.763 25.7552 22.8906 26.2969 22.8906C26.7604 22.8906 27.1797 22.7917 27.5547 22.5938C27.9297 22.3906 28.2812 22.1432 28.6094 21.8516ZM28.6094 23.0703C28.4896 23.1589 28.3281 23.2839 28.125 23.4453C27.9271 23.6016 27.7344 23.7266 27.5469 23.8203C27.2865 23.9557 27.0339 24.0599 26.7891 24.1328C26.5495 24.2057 26.2109 24.2422 25.7734 24.2422C25.4141 24.2422 25.0729 24.1745 24.75 24.0391C24.4271 23.9036 24.1432 23.7135 23.8984 23.4688C23.6641 23.2292 23.4766 22.9349 23.3359 22.5859C23.1953 22.2318 23.125 21.8594 23.125 21.4688C23.125 20.8646 23.2526 20.3516 23.5078 19.9297C23.763 19.5026 24.1667 19.1641 24.7188 18.9141C25.2083 18.6901 25.7865 18.5365 26.4531 18.4531C27.1198 18.3646 27.8385 18.2995 28.6094 18.2578V17.9766C28.6094 17.6328 28.5573 17.3568 28.4531 17.1484C28.349 16.9349 28.2031 16.7708 28.0156 16.6562C27.8281 16.5365 27.599 16.4583 27.3281 16.4219C27.0573 16.3802 26.7786 16.3594 26.4922 16.3594C26.1536 16.3594 25.7552 16.4115 25.2969 16.5156C24.8385 16.6146 24.3802 16.7604 23.9219 16.9531H23.8359V15.4609C24.1068 15.3828 24.4948 15.2969 25 15.2031C25.5052 15.1094 26.0052 15.0625 26.5 15.0625C27.099 15.0625 27.6042 15.1094 28.0156 15.2031C28.4271 15.2969 28.7969 15.4661 29.125 15.7109C29.4427 15.9505 29.6797 16.2604 29.8359 16.6406C29.9922 17.0208 30.0703 17.4844 30.0703 18.0312V24H28.6094V23.0703ZM39 24H37.5312V19.0312C37.5312 18.6302 37.5104 18.2578 37.4688 17.9141C37.4323 17.5651 37.3594 17.2865 37.25 17.0781C37.1302 16.8594 36.9635 16.6979 36.75 16.5938C36.5365 16.4844 36.2448 16.4297 35.875 16.4297C35.5104 16.4297 35.1328 16.5286 34.7422 16.7266C34.3568 16.9193 33.9792 17.1719 33.6094 17.4844V24H32.1406V15.2734H33.6094V16.2422C34.0469 15.8516 34.4792 15.5521 34.9062 15.3438C35.3333 15.1354 35.7839 15.0312 36.2578 15.0312C37.1172 15.0312 37.7891 15.3151 38.2734 15.8828C38.7578 16.4453 39 17.263 39 18.3359V24ZM47.7812 15.2734L44.4922 24H43.1719L39.9062 15.2734H41.4922L43.8828 22.0078L46.25 15.2734H47.7812ZM50.3906 24H48.9219V15.2734H50.3906V24ZM50.4922 13.8125H48.8203V12.2891H50.4922V13.8125ZM56.3359 24.2031C54.9453 24.2031 53.8646 23.8125 53.0938 23.0312C52.3281 22.2448 51.9453 21.1302 51.9453 19.6875C51.9453 18.2656 52.3177 17.1354 53.0625 16.2969C53.8073 15.4531 54.7812 15.0312 55.9844 15.0312C56.526 15.0312 57.0052 15.1094 57.4219 15.2656C57.8385 15.4219 58.2031 15.6667 58.5156 16C58.8281 16.3333 59.0677 16.7422 59.2344 17.2266C59.401 17.7057 59.4844 18.2943 59.4844 18.9922V19.7891H53.4375C53.4375 20.8047 53.6927 21.5807 54.2031 22.1172C54.7135 22.6536 55.4193 22.9219 56.3203 22.9219C56.6432 22.9219 56.9583 22.8854 57.2656 22.8125C57.5781 22.7396 57.8594 22.6458 58.1094 22.5312C58.375 22.4115 58.599 22.2969 58.7812 22.1875C58.9635 22.0729 59.1146 21.9661 59.2344 21.8672H59.3203V23.4688C59.1484 23.5365 58.9349 23.6224 58.6797 23.7266C58.4245 23.8255 58.1953 23.9036 57.9922 23.9609C57.7057 24.0391 57.4453 24.099 57.2109 24.1406C56.9818 24.1823 56.6901 24.2031 56.3359 24.2031ZM58.0547 18.6641C58.0443 18.2682 57.9974 17.9271 57.9141 17.6406C57.8307 17.3542 57.7109 17.112 57.5547 16.9141C57.3828 16.6953 57.1615 16.5286 56.8906 16.4141C56.625 16.2995 56.2943 16.2422 55.8984 16.2422C55.5078 16.2422 55.1745 16.3021 54.8984 16.4219C54.6276 16.5365 54.3802 16.7057 54.1562 16.9297C53.9375 17.1589 53.7708 17.4141 53.6562 17.6953C53.5417 17.9714 53.4688 18.2943 53.4375 18.6641H58.0547ZM65.5938 16.8516H65.5156C65.4062 16.8203 65.2891 16.8021 65.1641 16.7969C65.0443 16.7865 64.8984 16.7812 64.7266 16.7812C64.3307 16.7812 63.9375 16.8672 63.5469 17.0391C63.1562 17.2109 62.7865 17.4661 62.4375 17.8047V24H60.9688V15.2734H62.4375V16.5703C62.974 16.0964 63.4401 15.763 63.8359 15.5703C64.237 15.3724 64.625 15.2734 65 15.2734C65.151 15.2734 65.263 15.2786 65.3359 15.2891C65.4141 15.2943 65.5 15.3047 65.5938 15.3203V16.8516ZM78.7031 24H71.5234V22.3672C72.0391 21.8776 72.526 21.4089 72.9844 20.9609C73.4427 20.513 73.8906 20.0469 74.3281 19.5625C75.2135 18.5885 75.8177 17.8099 76.1406 17.2266C76.4635 16.638 76.625 16.0312 76.625 15.4062C76.625 15.0833 76.5729 14.7995 76.4688 14.5547C76.3698 14.3099 76.2318 14.1068 76.0547 13.9453C75.8724 13.7891 75.6615 13.6719 75.4219 13.5938C75.1823 13.5156 74.9193 13.4766 74.6328 13.4766C74.3568 13.4766 74.0755 13.513 73.7891 13.5859C73.5078 13.6536 73.237 13.7396 72.9766 13.8438C72.7578 13.9323 72.5469 14.0391 72.3438 14.1641C72.1406 14.2891 71.9766 14.3958 71.8516 14.4844H71.7656V12.8281C72.0885 12.6667 72.5365 12.5104 73.1094 12.3594C73.6875 12.2031 74.2344 12.125 74.75 12.125C75.8333 12.125 76.6823 12.4141 77.2969 12.9922C77.9115 13.5651 78.2188 14.3438 78.2188 15.3281C78.2188 15.7812 78.1641 16.2005 78.0547 16.5859C77.9505 16.9714 77.8047 17.3281 77.6172 17.6562C77.4245 17.9948 77.1927 18.3307 76.9219 18.6641C76.651 18.9974 76.3646 19.3255 76.0625 19.6484C75.5729 20.1797 75.026 20.7318 74.4219 21.3047C73.8229 21.8776 73.3438 22.3307 72.9844 22.6641H78.7031V24ZM87.4922 18.1797C87.4922 20.2682 87.1875 21.8021 86.5781 22.7812C85.974 23.7552 85.0391 24.2422 83.7734 24.2422C82.4922 24.2422 81.5521 23.7448 80.9531 22.75C80.3542 21.7552 80.0547 20.237 80.0547 18.1953C80.0547 16.0964 80.3568 14.5625 80.9609 13.5938C81.5703 12.6198 82.5078 12.1328 83.7734 12.1328C85.0547 12.1328 85.9948 12.6354 86.5938 13.6406C87.1927 14.6458 87.4922 16.1589 87.4922 18.1797ZM85.4922 21.7266C85.6432 21.3411 85.75 20.8542 85.8125 20.2656C85.875 19.6771 85.9062 18.9818 85.9062 18.1797C85.9062 17.3828 85.875 16.6901 85.8125 16.1016C85.75 15.513 85.6406 15.0234 85.4844 14.6328C85.3281 14.237 85.112 13.9375 84.8359 13.7344C84.5651 13.526 84.2109 13.4219 83.7734 13.4219C83.3411 13.4219 82.9844 13.526 82.7031 13.7344C82.4271 13.9375 82.2083 14.2422 82.0469 14.6484C81.8906 15.0443 81.7839 15.5443 81.7266 16.1484C81.6693 16.7526 81.6406 17.4349 81.6406 18.1953C81.6406 19.0078 81.6641 19.6875 81.7109 20.2344C81.763 20.7812 81.8724 21.2708 82.0391 21.7031C82.1901 22.1042 82.4036 22.4141 82.6797 22.6328C82.9609 22.8464 83.3255 22.9531 83.7734 22.9531C84.2057 22.9531 84.5599 22.8516 84.8359 22.6484C85.1172 22.4401 85.3359 22.1328 85.4922 21.7266ZM96.1719 24H88.9922V22.3672C89.5078 21.8776 89.9948 21.4089 90.4531 20.9609C90.9115 20.513 91.3594 20.0469 91.7969 19.5625C92.6823 18.5885 93.2865 17.8099 93.6094 17.2266C93.9323 16.638 94.0938 16.0312 94.0938 15.4062C94.0938 15.0833 94.0417 14.7995 93.9375 14.5547C93.8385 14.3099 93.7005 14.1068 93.5234 13.9453C93.3411 13.7891 93.1302 13.6719 92.8906 13.5938C92.651 13.5156 92.388 13.4766 92.1016 13.4766C91.8255 13.4766 91.5443 13.513 91.2578 13.5859C90.9766 13.6536 90.7057 13.7396 90.4453 13.8438C90.2266 13.9323 90.0156 14.0391 89.8125 14.1641C89.6094 14.2891 89.4453 14.3958 89.3203 14.4844H89.2344V12.8281C89.5573 12.6667 90.0052 12.5104 90.5781 12.3594C91.1562 12.2031 91.7031 12.125 92.2188 12.125C93.3021 12.125 94.151 12.4141 94.7656 12.9922C95.3802 13.5651 95.6875 14.3438 95.6875 15.3281C95.6875 15.7812 95.6328 16.2005 95.5234 16.5859C95.4193 16.9714 95.2734 17.3281 95.0859 17.6562C94.8932 17.9948 94.6615 18.3307 94.3906 18.6641C94.1198 18.9974 93.8333 19.3255 93.5312 19.6484C93.0417 20.1797 92.4948 20.7318 91.8906 21.3047C91.2917 21.8776 90.8125 22.3307 90.4531 22.6641H96.1719V24ZM104.906 24H97.7266V22.3672C98.2422 21.8776 98.7292 21.4089 99.1875 20.9609C99.6458 20.513 100.094 20.0469 100.531 19.5625C101.417 18.5885 102.021 17.8099 102.344 17.2266C102.667 16.638 102.828 16.0312 102.828 15.4062C102.828 15.0833 102.776 14.7995 102.672 14.5547C102.573 14.3099 102.435 14.1068 102.258 13.9453C102.076 13.7891 101.865 13.6719 101.625 13.5938C101.385 13.5156 101.122 13.4766 100.836 13.4766C100.56 13.4766 100.279 13.513 99.9922 13.5859C99.7109 13.6536 99.4401 13.7396 99.1797 13.8438C98.9609 13.9323 98.75 14.0391 98.5469 14.1641C98.3438 14.2891 98.1797 14.3958 98.0547 14.4844H97.9688V12.8281C98.2917 12.6667 98.7396 12.5104 99.3125 12.3594C99.8906 12.2031 100.438 12.125 100.953 12.125C102.036 12.125 102.885 12.4141 103.5 12.9922C104.115 13.5651 104.422 14.3438 104.422 15.3281C104.422 15.7812 104.367 16.2005 104.258 16.5859C104.154 16.9714 104.008 17.3281 103.82 17.6562C103.628 17.9948 103.396 18.3307 103.125 18.6641C102.854 18.9974 102.568 19.3255 102.266 19.6484C101.776 20.1797 101.229 20.7318 100.625 21.3047C100.026 21.8776 99.5469 22.3307 99.1875 22.6641H104.906V24Z" fill="white"/>
<path d="M115.6 20.3001C115.6 20.0601 115.68 19.9001 115.84 19.7401L121.44 14.1401C121.76 13.8201 122.24 13.8201 122.56 14.1401L128.16 19.7401C128.48 20.0601 128.48 20.5401 128.16 20.8601C127.84 21.1801 127.36 21.1801 127.04 20.8601L122 15.8201L116.96 20.8601C116.64 21.1801 116.16 21.1801 115.84 20.8601C115.68 20.7001 115.6 20.5401 115.6 20.3001Z" fill="white"/>
</svg>
