<svg width="178" height="27" viewBox="0 0 178 27" fill="none" xmlns="http://www.w3.org/2000/svg">
<path d="M13.8444 26.4501H17.8V16.4001C17.8 15.8501 17.6022 15.3501 17.2067 14.9501L11.3722 9.05007C11.0261 8.70007 10.5317 8.45007 9.93833 8.45007H0V12.4501H10.8778C12.5094 12.4501 13.8444 13.8001 13.8444 15.4501V26.4501Z" fill="#03050D"/>
<path d="M23.6841 26.45H19.7285V16.4C19.7285 15.85 19.9263 15.35 20.3218 14.95L26.2057 9.00002C26.5518 8.65002 27.0463 8.40002 27.6396 8.40002H37.578V12.4H26.7002C25.0685 12.4 23.7335 13.75 23.7335 15.4V26.45H23.6841Z" fill="#03050D"/>
<path d="M55.3779 8.45005H58.4435V11.25H58.4929C59.3829 9.40005 61.2618 8.05005 63.1407 8.05005C64.1296 8.05005 64.6241 8.15005 65.3163 8.30005V11.25C64.7229 11 64.0802 10.95 63.4868 10.95C60.5696 10.95 58.6413 13.75 58.6413 18.3V26.5H55.3779V8.45005Z" fill="#03050D"/>
<path d="M155.651 19.45C155.651 22.15 153.92 24.25 150.706 24.25C149.223 24.25 147.394 23.2 147.394 21.3C147.394 18.1 151.794 17.8 153.574 17.8C154.267 17.8 154.959 17.85 155.651 17.85V19.45ZM146.108 12.55C147.443 11.4 149.421 10.7 151.25 10.7C154.514 10.7 155.651 12.3 155.651 15.4C154.365 15.35 153.475 15.35 152.19 15.35C148.828 15.35 143.933 16.75 143.933 21.3C143.933 25.25 146.603 26.9501 150.459 26.9501C153.475 26.9501 155.206 25.3001 155.948 24.2001H155.997V26.5H158.914V15.5C158.914 10.6 156.887 8.05005 151.794 8.05005C149.52 8.05005 147.592 8.75005 145.96 9.75005L146.108 12.55Z" fill="#03050D"/>
<path d="M76.441 19.45C76.441 22.15 74.7104 24.25 71.4966 24.25C70.0132 24.25 68.1838 23.2 68.1838 21.3C68.1838 18.1 72.5843 17.8 74.3643 17.8C75.0565 17.8 75.7488 17.85 76.441 17.85V19.45ZM66.8982 12.55C68.2332 11.4 70.211 10.7 72.0404 10.7C75.3038 10.7 76.441 12.3 76.441 15.4C75.1554 15.35 74.2654 15.35 72.9799 15.35C69.6177 15.35 64.7227 16.75 64.7227 21.3C64.7227 25.25 67.3927 26.9501 71.2493 26.9501C74.2654 26.9501 75.996 25.3001 76.7377 24.2001H76.7871V26.5H79.7043V15.5C79.7043 10.6 77.6771 8.05005 72.5843 8.05005C70.3099 8.05005 68.3815 8.75005 66.7499 9.75005L66.8982 12.55Z" fill="#03050D"/>
<path d="M82.374 8.45H85.5385V11.25H85.5879C86.5768 9.2 88.9501 8 91.4224 8C96.0207 8 98.0974 10.9 98.0974 15.7V26.4H94.834V17.15C94.834 12.95 93.944 10.9 91.0762 10.7C87.3185 10.7 85.6374 13.75 85.6374 18.15V26.5H82.374V8.45Z" fill="#03050D"/>
<path d="M119.408 22.95C120.694 23.8 122.573 24.25 123.512 24.25C124.996 24.25 126.874 23.6 126.874 21.65C126.874 18.35 119.161 18.65 119.161 13.55C119.161 9.8 121.93 8 125.441 8C126.973 8 128.209 8.3 129.495 8.7L129.198 11.6C128.457 11.15 126.528 10.7 125.737 10.7C124.056 10.7 122.622 11.4 122.622 12.9C122.622 16.6 130.336 15.55 130.336 21.3C130.336 25.15 127.319 26.9 124.106 26.9C122.424 26.9 120.743 26.75 119.211 25.9L119.408 22.95Z" fill="#03050D"/>
<path d="M142.796 11.15H138.099V21C138.099 23.1 139.335 24.25 140.868 24.25C141.857 24.25 142.598 23.95 143.093 23.6V26.4C142.351 26.6 141.362 26.9 140.324 26.9C136.962 26.9 134.885 25.3 134.885 21.7V11.15H130.88V8.5H134.885V4.3L138.148 3.25V8.45H142.845V11.15H142.796Z" fill="#03050D"/>
<path d="M164.601 17.4C164.551 14.1 165.936 10.7 169.496 10.7C173.056 10.7 174.737 14.15 174.737 17.5C174.737 20.5 173.204 24.25 169.496 24.25C165.985 24.25 164.502 20.25 164.601 17.4ZM174.885 26.45H178V0H174.737V10.9H174.687C173.699 9.25 171.919 8 168.804 8C163.661 8 161.14 12.25 161.14 17.1C161.14 22.05 163.414 26.85 168.754 26.85C171.919 26.85 173.946 25.25 174.836 23.9H174.885V26.45Z" fill="#03050D"/>
<path d="M103.833 17.4C103.784 14.1 105.168 10.7 108.728 10.7C112.288 10.7 113.969 14.15 113.969 17.5C113.969 20.5 112.437 24.25 108.728 24.25C105.218 24.25 103.734 20.25 103.833 17.4ZM114.118 26.45H117.233V0H113.969V10.9H113.92C112.931 9.25 111.151 8 108.036 8C102.894 8 100.372 12.25 100.372 17.1C100.372 22.05 102.647 26.85 108.036 26.85C111.2 26.85 113.228 25.25 114.118 23.9H114.167V26.45H114.118Z" fill="#03050D"/>
</svg>
