<svg width="178" height="27" viewBox="0 0 178 27" fill="none" xmlns="http://www.w3.org/2000/svg">
<path d="M13.8444 26.45H17.8V16.4C17.8 15.85 17.6022 15.35 17.2067 14.95L11.3722 9.04995C11.0261 8.69995 10.5317 8.44995 9.93833 8.44995H0V12.45H10.8778C12.5094 12.45 13.8444 13.8 13.8444 15.45V26.45Z" fill="#03050D"/>
<path d="M23.6839 26.4499H19.7284V16.3999C19.7284 15.8499 19.9262 15.3499 20.3217 14.9499L26.2056 8.9999C26.5517 8.6499 27.0462 8.3999 27.6395 8.3999H37.5778V12.3999H26.7001C25.0684 12.3999 23.7334 13.7499 23.7334 15.3999V26.4499H23.6839Z" fill="#03050D"/>
<path d="M55.3778 8.45005H58.4434V11.25H58.4928C59.3828 9.40005 61.2617 8.05005 63.1406 8.05005C64.1295 8.05005 64.6239 8.15005 65.3162 8.30005V11.25C64.7228 11 64.08 10.95 63.4867 10.95C60.5695 10.95 58.6411 13.75 58.6411 18.3V26.5H55.3778V8.45005Z" fill="#03050D"/>
<path d="M155.651 19.45C155.651 22.15 153.921 24.25 150.707 24.25C149.223 24.25 147.394 23.2 147.394 21.3C147.394 18.1 151.794 17.8 153.574 17.8C154.267 17.8 154.959 17.85 155.651 17.85V19.45ZM146.108 12.55C147.443 11.4 149.421 10.7 151.251 10.7C154.514 10.7 155.651 12.3 155.651 15.4C154.366 15.35 153.476 15.35 152.19 15.35C148.828 15.35 143.933 16.75 143.933 21.3C143.933 25.25 146.603 26.9501 150.459 26.9501C153.476 26.9501 155.206 25.3001 155.948 24.2001H155.997V26.5H158.914V15.5C158.914 10.6 156.887 8.05005 151.794 8.05005C149.52 8.05005 147.592 8.75005 145.96 9.75005L146.108 12.55Z" fill="#03050D"/>
<path d="M76.4411 19.45C76.4411 22.15 74.7106 24.25 71.4967 24.25C70.0133 24.25 68.1839 23.2 68.1839 21.3C68.1839 18.1 72.5844 17.8 74.3644 17.8C75.0567 17.8 75.7489 17.85 76.4411 17.85V19.45ZM66.8983 12.55C68.2333 11.4 70.2111 10.7 72.0406 10.7C75.3039 10.7 76.4411 12.3 76.4411 15.4C75.1556 15.35 74.2656 15.35 72.98 15.35C69.6178 15.35 64.7228 16.75 64.7228 21.3C64.7228 25.25 67.3928 26.9501 71.2495 26.9501C74.2656 26.9501 75.9961 25.3001 76.7378 24.2001H76.7872V26.5H79.7044V15.5C79.7044 10.6 77.6772 8.05005 72.5844 8.05005C70.31 8.05005 68.3817 8.75005 66.75 9.75005L66.8983 12.55Z" fill="#03050D"/>
<path d="M82.3745 8.45H85.539V11.25H85.5884C86.5773 9.2 88.9506 8 91.4228 8C96.0212 8 98.0978 10.9 98.0978 15.7V26.4H94.8345V17.15C94.8345 12.95 93.9445 10.9 91.0767 10.7C87.319 10.7 85.6378 13.75 85.6378 18.15V26.5H82.3745V8.45Z" fill="#03050D"/>
<path d="M119.408 22.95C120.694 23.8 122.573 24.25 123.512 24.25C124.996 24.25 126.874 23.6 126.874 21.65C126.874 18.35 119.161 18.65 119.161 13.55C119.161 9.8 121.93 8 125.441 8C126.973 8 128.209 8.3 129.495 8.7L129.198 11.6C128.457 11.15 126.528 10.7 125.737 10.7C124.056 10.7 122.622 11.4 122.622 12.9C122.622 16.6 130.336 15.55 130.336 21.3C130.336 25.15 127.319 26.9 124.106 26.9C122.424 26.9 120.743 26.75 119.211 25.9L119.408 22.95Z" fill="#03050D"/>
<path d="M142.795 11.15H138.098V21C138.098 23.1 139.334 24.25 140.867 24.25C141.856 24.25 142.598 23.95 143.092 23.6V26.4C142.35 26.6 141.362 26.9 140.323 26.9C136.961 26.9 134.884 25.3 134.884 21.7V11.15H130.879V8.5H134.884V4.3L138.148 3.25V8.45H142.845V11.15H142.795Z" fill="#03050D"/>
<path d="M164.601 17.4C164.551 14.1 165.936 10.7 169.496 10.7C173.056 10.7 174.737 14.15 174.737 17.5C174.737 20.5 173.204 24.25 169.496 24.25C165.985 24.25 164.502 20.25 164.601 17.4ZM174.885 26.45H178V0H174.737V10.9H174.687C173.698 9.25 171.918 8 168.803 8C163.661 8 161.139 12.25 161.139 17.1C161.139 22.05 163.414 26.85 168.754 26.85C171.918 26.85 173.946 25.25 174.836 23.9H174.885V26.45Z" fill="#03050D"/>
<path d="M103.833 17.4C103.784 14.1 105.168 10.7 108.728 10.7C112.288 10.7 113.969 14.15 113.969 17.5C113.969 20.5 112.437 24.25 108.728 24.25C105.218 24.25 103.734 20.25 103.833 17.4ZM114.118 26.45H117.233V0H113.969V10.9H113.92C112.931 9.25 111.151 8 108.036 8C102.894 8 100.372 12.25 100.372 17.1C100.372 22.05 102.647 26.85 108.036 26.85C111.201 26.85 113.228 25.25 114.118 23.9H114.167V26.45H114.118Z" fill="#03050D"/>
</svg>
