<svg width="328" height="415" viewBox="0 0 328 415" fill="none" xmlns="http://www.w3.org/2000/svg">
<mask id="mask0_78_3373" style="mask-type:alpha" maskUnits="userSpaceOnUse" x="0" y="0" width="328" height="413">
<rect width="328" height="292" rx="8" fill="#ECF3FC"/>
<path d="M16.8047 335V317.551H28.6055V320.879H21.1641V323.938H28.0195V327.266H21.1641V331.672H28.6055V335H16.8047ZM43.6641 335H39.5391V328.473C39.5391 327.942 39.5156 327.414 39.4688 326.891C39.4297 326.36 39.3516 325.969 39.2344 325.719C39.0938 325.422 38.8906 325.211 38.625 325.086C38.3594 324.953 38.0039 324.887 37.5586 324.887C37.2227 324.887 36.8828 324.949 36.5391 325.074C36.1953 325.199 35.8281 325.399 35.4375 325.672V335H31.3359V321.84H35.4375V323.293C36.1094 322.723 36.7617 322.278 37.3945 321.957C38.0352 321.637 38.7422 321.477 39.5156 321.477C40.8594 321.477 41.8867 321.903 42.5977 322.754C43.3086 323.598 43.6641 324.824 43.6641 326.434V335ZM59.0273 321.84L54.3047 335H49.8281L45.1406 321.84H49.4531L52.1484 330.547L54.8086 321.84H59.0273ZM64.7109 335H60.6094V321.84H64.7109V335ZM64.8281 319.965H60.4922V316.766H64.8281V319.965ZM74.5898 335.352C72.1055 335.352 70.1992 334.758 68.8711 333.571C67.5508 332.383 66.8906 330.692 66.8906 328.496C66.8906 326.348 67.5078 324.633 68.7422 323.352C69.9766 322.071 71.7031 321.43 73.9219 321.43C75.9375 321.43 77.4531 321.973 78.4688 323.059C79.4844 324.145 79.9922 325.699 79.9922 327.723V329.199H71.0039C71.043 329.809 71.1719 330.321 71.3906 330.735C71.6094 331.141 71.8984 331.465 72.2578 331.707C72.6094 331.949 73.0195 332.125 73.4883 332.235C73.957 332.336 74.4688 332.387 75.0234 332.387C75.5 332.387 75.9688 332.336 76.4297 332.235C76.8906 332.125 77.3125 331.985 77.6953 331.813C78.0312 331.664 78.3398 331.504 78.6211 331.332C78.9102 331.16 79.1445 331.008 79.3242 330.875H79.7578V334.262C79.4219 334.395 79.1133 334.52 78.832 334.637C78.5586 334.746 78.1797 334.86 77.6953 334.977C77.25 335.094 76.7891 335.184 76.3125 335.246C75.8438 335.317 75.2695 335.352 74.5898 335.352ZM75.9492 326.727C75.9258 325.86 75.7227 325.199 75.3398 324.746C74.9648 324.293 74.3867 324.067 73.6055 324.067C72.8086 324.067 72.1836 324.305 71.7305 324.781C71.2852 325.258 71.0391 325.906 70.9922 326.727H75.9492ZM101.098 335H96.9961V333.629C96.7305 333.848 96.4258 334.082 96.082 334.332C95.7461 334.582 95.4492 334.77 95.1914 334.895C94.8633 335.051 94.5391 335.168 94.2188 335.246C93.8984 335.324 93.5156 335.364 93.0703 335.364C91.5703 335.364 90.3828 334.742 89.5078 333.5C88.6328 332.258 88.1953 330.598 88.1953 328.52C88.1953 327.371 88.3438 326.375 88.6406 325.531C88.9375 324.688 89.3477 323.953 89.8711 323.328C90.3477 322.758 90.9258 322.309 91.6055 321.981C92.2852 321.645 93.0039 321.477 93.7617 321.477C94.4492 321.477 95.0117 321.551 95.4492 321.699C95.8945 321.84 96.4102 322.063 96.9961 322.367V316.766H101.098V335ZM96.9961 331.367V324.91C96.793 324.809 96.5273 324.727 96.1992 324.664C95.8711 324.594 95.5898 324.559 95.3555 324.559C94.3711 324.559 93.6289 324.903 93.1289 325.59C92.6367 326.278 92.3906 327.239 92.3906 328.473C92.3906 329.77 92.5859 330.707 92.9766 331.285C93.375 331.864 94.0156 332.153 94.8984 332.153C95.2578 332.153 95.6211 332.082 95.9883 331.942C96.3555 331.801 96.6914 331.61 96.9961 331.367ZM110.988 335.352C108.504 335.352 106.598 334.758 105.27 333.571C103.949 332.383 103.289 330.692 103.289 328.496C103.289 326.348 103.906 324.633 105.141 323.352C106.375 322.071 108.102 321.43 110.32 321.43C112.336 321.43 113.852 321.973 114.867 323.059C115.883 324.145 116.391 325.699 116.391 327.723V329.199H107.402C107.441 329.809 107.57 330.321 107.789 330.735C108.008 331.141 108.297 331.465 108.656 331.707C109.008 331.949 109.418 332.125 109.887 332.235C110.355 332.336 110.867 332.387 111.422 332.387C111.898 332.387 112.367 332.336 112.828 332.235C113.289 332.125 113.711 331.985 114.094 331.813C114.43 331.664 114.738 331.504 115.02 331.332C115.309 331.16 115.543 331.008 115.723 330.875H116.156V334.262C115.82 334.395 115.512 334.52 115.23 334.637C114.957 334.746 114.578 334.86 114.094 334.977C113.648 335.094 113.188 335.184 112.711 335.246C112.242 335.317 111.668 335.352 110.988 335.352ZM112.348 326.727C112.324 325.86 112.121 325.199 111.738 324.746C111.363 324.293 110.785 324.067 110.004 324.067C109.207 324.067 108.582 324.305 108.129 324.781C107.684 325.258 107.438 325.906 107.391 326.727H112.348ZM137.496 335H133.395V333.629C133.129 333.848 132.824 334.082 132.48 334.332C132.145 334.582 131.848 334.77 131.59 334.895C131.262 335.051 130.938 335.168 130.617 335.246C130.297 335.324 129.914 335.364 129.469 335.364C127.969 335.364 126.781 334.742 125.906 333.5C125.031 332.258 124.594 330.598 124.594 328.52C124.594 327.371 124.742 326.375 125.039 325.531C125.336 324.688 125.746 323.953 126.27 323.328C126.746 322.758 127.324 322.309 128.004 321.981C128.684 321.645 129.402 321.477 130.16 321.477C130.848 321.477 131.41 321.551 131.848 321.699C132.293 321.84 132.809 322.063 133.395 322.367V316.766H137.496V335ZM133.395 331.367V324.91C133.191 324.809 132.926 324.727 132.598 324.664C132.27 324.594 131.988 324.559 131.754 324.559C130.77 324.559 130.027 324.903 129.527 325.59C129.035 326.278 128.789 327.239 128.789 328.473C128.789 329.77 128.984 330.707 129.375 331.285C129.773 331.864 130.414 332.153 131.297 332.153C131.656 332.153 132.02 332.082 132.387 331.942C132.754 331.801 133.09 331.61 133.395 331.367ZM147.387 335.352C144.902 335.352 142.996 334.758 141.668 333.571C140.348 332.383 139.688 330.692 139.688 328.496C139.688 326.348 140.305 324.633 141.539 323.352C142.773 322.071 144.5 321.43 146.719 321.43C148.734 321.43 150.25 321.973 151.266 323.059C152.281 324.145 152.789 325.699 152.789 327.723V329.199H143.801C143.84 329.809 143.969 330.321 144.188 330.735C144.406 331.141 144.695 331.465 145.055 331.707C145.406 331.949 145.816 332.125 146.285 332.235C146.754 332.336 147.266 332.387 147.82 332.387C148.297 332.387 148.766 332.336 149.227 332.235C149.688 332.125 150.109 331.985 150.492 331.813C150.828 331.664 151.137 331.504 151.418 331.332C151.707 331.16 151.941 331.008 152.121 330.875H152.555V334.262C152.219 334.395 151.91 334.52 151.629 334.637C151.355 334.746 150.977 334.86 150.492 334.977C150.047 335.094 149.586 335.184 149.109 335.246C148.641 335.317 148.066 335.352 147.387 335.352ZM148.746 326.727C148.723 325.86 148.52 325.199 148.137 324.746C147.762 324.293 147.184 324.067 146.402 324.067C145.605 324.067 144.98 324.305 144.527 324.781C144.082 325.258 143.836 325.906 143.789 326.727H148.746ZM150.551 315.36L147.035 319.965H144.246L146.672 315.36H150.551ZM161.355 335.352C160.27 335.352 159.273 335.215 158.367 334.942C157.469 334.668 156.688 334.246 156.023 333.676C155.367 333.106 154.855 332.391 154.488 331.531C154.121 330.664 153.938 329.645 153.938 328.473C153.938 327.215 154.137 326.145 154.535 325.262C154.934 324.379 155.473 323.653 156.152 323.082C156.809 322.535 157.578 322.133 158.461 321.875C159.352 321.61 160.277 321.477 161.238 321.477C161.965 321.477 162.691 321.563 163.418 321.735C164.145 321.899 164.875 322.164 165.609 322.531V326.047H165.082C164.918 325.891 164.715 325.719 164.473 325.531C164.238 325.344 163.98 325.172 163.699 325.016C163.402 324.852 163.066 324.715 162.691 324.606C162.316 324.489 161.898 324.43 161.438 324.43C160.391 324.43 159.578 324.797 159 325.531C158.43 326.258 158.145 327.239 158.145 328.473C158.145 329.793 158.449 330.778 159.059 331.426C159.676 332.074 160.492 332.399 161.508 332.399C162.023 332.399 162.477 332.34 162.867 332.223C163.258 332.106 163.594 331.965 163.875 331.801C164.148 331.637 164.383 331.469 164.578 331.297C164.773 331.117 164.941 330.957 165.082 330.817H165.609V334.332C165.375 334.434 165.102 334.551 164.789 334.684C164.484 334.817 164.172 334.926 163.852 335.012C163.453 335.121 163.078 335.203 162.727 335.258C162.383 335.321 161.926 335.352 161.355 335.352ZM180.188 328.426C180.188 330.59 179.594 332.297 178.406 333.547C177.227 334.789 175.555 335.41 173.391 335.41C171.242 335.41 169.57 334.789 168.375 333.547C167.188 332.297 166.594 330.59 166.594 328.426C166.594 326.239 167.188 324.528 168.375 323.293C169.57 322.051 171.242 321.43 173.391 321.43C175.547 321.43 177.219 322.055 178.406 323.305C179.594 324.547 180.188 326.254 180.188 328.426ZM175.98 328.449C175.98 327.668 175.914 327.02 175.781 326.504C175.656 325.981 175.48 325.563 175.254 325.25C175.012 324.922 174.738 324.696 174.434 324.571C174.129 324.438 173.781 324.371 173.391 324.371C173.023 324.371 172.691 324.43 172.395 324.547C172.098 324.656 171.824 324.871 171.574 325.192C171.34 325.496 171.152 325.914 171.012 326.446C170.871 326.977 170.801 327.645 170.801 328.449C170.801 329.254 170.867 329.906 171 330.406C171.133 330.899 171.305 331.293 171.516 331.59C171.734 331.895 172.008 332.117 172.336 332.258C172.664 332.399 173.027 332.469 173.426 332.469C173.754 332.469 174.086 332.399 174.422 332.258C174.766 332.117 175.039 331.906 175.242 331.625C175.484 331.289 175.668 330.887 175.793 330.418C175.918 329.942 175.98 329.285 175.98 328.449ZM194.59 335H190.488V333.547C189.777 334.141 189.125 334.594 188.531 334.906C187.938 335.211 187.23 335.364 186.41 335.364C185.105 335.364 184.086 334.953 183.352 334.133C182.625 333.305 182.262 332.063 182.262 330.406V321.84H186.387V328.367C186.387 329.047 186.402 329.602 186.434 330.031C186.473 330.461 186.559 330.824 186.691 331.121C186.816 331.395 187.008 331.602 187.266 331.742C187.531 331.883 187.898 331.953 188.367 331.953C188.656 331.953 188.996 331.883 189.387 331.742C189.785 331.602 190.152 331.41 190.488 331.168V321.84H194.59V335ZM210.059 321.84L205.336 335H200.859L196.172 321.84H200.484L203.18 330.547L205.84 321.84H210.059ZM220.477 325.719H220.137C219.98 325.664 219.754 325.625 219.457 325.602C219.16 325.571 218.832 325.555 218.473 325.555C218.043 325.555 217.59 325.617 217.113 325.742C216.645 325.867 216.188 326.016 215.742 326.188V335H211.641V321.84H215.742V323.727C215.93 323.555 216.188 323.34 216.516 323.082C216.852 322.817 217.156 322.606 217.43 322.449C217.727 322.27 218.07 322.117 218.461 321.992C218.859 321.86 219.234 321.793 219.586 321.793C219.719 321.793 219.867 321.797 220.031 321.805C220.195 321.813 220.344 321.824 220.477 321.84V325.719ZM226.148 335H222.047V321.84H226.148V335ZM226.266 319.965H221.93V316.766H226.266V319.965ZM238.125 325.719H237.785C237.629 325.664 237.402 325.625 237.105 325.602C236.809 325.571 236.48 325.555 236.121 325.555C235.691 325.555 235.238 325.617 234.762 325.742C234.293 325.867 233.836 326.016 233.391 326.188V335H229.289V321.84H233.391V323.727C233.578 323.555 233.836 323.34 234.164 323.082C234.5 322.817 234.805 322.606 235.078 322.449C235.375 322.27 235.719 322.117 236.109 321.992C236.508 321.86 236.883 321.793 237.234 321.793C237.367 321.793 237.516 321.797 237.68 321.805C237.844 321.813 237.992 321.824 238.125 321.84V325.719ZM28.793 364H24.6914V362.547C23.9805 363.141 23.3281 363.594 22.7344 363.906C22.1406 364.211 21.4336 364.364 20.6133 364.364C19.3086 364.364 18.2891 363.953 17.5547 363.133C16.8281 362.305 16.4648 361.063 16.4648 359.406V350.84H20.5898V357.367C20.5898 358.047 20.6055 358.602 20.6367 359.031C20.6758 359.461 20.7617 359.824 20.8945 360.121C21.0195 360.395 21.2109 360.602 21.4688 360.742C21.7344 360.883 22.1016 360.953 22.5703 360.953C22.8594 360.953 23.1992 360.883 23.5898 360.742C23.9883 360.602 24.3555 360.41 24.6914 360.168V350.84H28.793V364ZM44.2734 364H40.1484V357.473C40.1484 356.942 40.125 356.414 40.0781 355.891C40.0391 355.36 39.9609 354.969 39.8438 354.719C39.7031 354.422 39.5 354.211 39.2344 354.086C38.9688 353.953 38.6133 353.887 38.168 353.887C37.832 353.887 37.4922 353.949 37.1484 354.074C36.8047 354.199 36.4375 354.399 36.0469 354.672V364H31.9453V350.84H36.0469V352.293C36.7188 351.723 37.3711 351.278 38.0039 350.957C38.6445 350.637 39.3516 350.477 40.125 350.477C41.4688 350.477 42.4961 350.903 43.207 351.754C43.918 352.598 44.2734 353.824 44.2734 355.434V364ZM66.6797 364H62.5547V357.473C62.5547 356.942 62.5312 356.414 62.4844 355.891C62.4453 355.36 62.3672 354.969 62.25 354.719C62.1094 354.422 61.9062 354.211 61.6406 354.086C61.375 353.953 61.0195 353.887 60.5742 353.887C60.2383 353.887 59.8984 353.949 59.5547 354.074C59.2109 354.199 58.8438 354.399 58.4531 354.672V364H54.3516V350.84H58.4531V352.293C59.125 351.723 59.7773 351.278 60.4102 350.957C61.0508 350.637 61.7578 350.477 62.5312 350.477C63.875 350.477 64.9023 350.903 65.6133 351.754C66.3242 352.598 66.6797 353.824 66.6797 355.434V364ZM82.3594 357.426C82.3594 359.59 81.7656 361.297 80.5781 362.547C79.3984 363.789 77.7266 364.41 75.5625 364.41C73.4141 364.41 71.7422 363.789 70.5469 362.547C69.3594 361.297 68.7656 359.59 68.7656 357.426C68.7656 355.239 69.3594 353.528 70.5469 352.293C71.7422 351.051 73.4141 350.43 75.5625 350.43C77.7188 350.43 79.3906 351.055 80.5781 352.305C81.7656 353.547 82.3594 355.254 82.3594 357.426ZM78.1523 357.449C78.1523 356.668 78.0859 356.02 77.9531 355.504C77.8281 354.981 77.6523 354.563 77.4258 354.25C77.1836 353.922 76.9102 353.696 76.6055 353.571C76.3008 353.438 75.9531 353.371 75.5625 353.371C75.1953 353.371 74.8633 353.43 74.5664 353.547C74.2695 353.656 73.9961 353.871 73.7461 354.192C73.5117 354.496 73.3242 354.914 73.1836 355.446C73.043 355.977 72.9727 356.645 72.9727 357.449C72.9727 358.254 73.0391 358.906 73.1719 359.406C73.3047 359.899 73.4766 360.293 73.6875 360.59C73.9062 360.895 74.1797 361.117 74.5078 361.258C74.8359 361.399 75.1992 361.469 75.5977 361.469C75.9258 361.469 76.2578 361.399 76.5938 361.258C76.9375 361.117 77.2109 360.906 77.4141 360.625C77.6562 360.289 77.8398 359.887 77.9648 359.418C78.0898 358.942 78.1523 358.285 78.1523 357.449ZM96.7617 364H92.6602V362.547C91.9492 363.141 91.2969 363.594 90.7031 363.906C90.1094 364.211 89.4023 364.364 88.582 364.364C87.2773 364.364 86.2578 363.953 85.5234 363.133C84.7969 362.305 84.4336 361.063 84.4336 359.406V350.84H88.5586V357.367C88.5586 358.047 88.5742 358.602 88.6055 359.031C88.6445 359.461 88.7305 359.824 88.8633 360.121C88.9883 360.395 89.1797 360.602 89.4375 360.742C89.7031 360.883 90.0703 360.953 90.5391 360.953C90.8281 360.953 91.168 360.883 91.5586 360.742C91.957 360.602 92.3242 360.41 92.6602 360.168V350.84H96.7617V364ZM112.23 350.84L107.508 364H103.031L98.3438 350.84H102.656L105.352 359.547L108.012 350.84H112.23ZM120.551 364.352C118.066 364.352 116.16 363.758 114.832 362.571C113.512 361.383 112.852 359.692 112.852 357.496C112.852 355.348 113.469 353.633 114.703 352.352C115.938 351.071 117.664 350.43 119.883 350.43C121.898 350.43 123.414 350.973 124.43 352.059C125.445 353.145 125.953 354.699 125.953 356.723V358.199H116.965C117.004 358.809 117.133 359.321 117.352 359.735C117.57 360.141 117.859 360.465 118.219 360.707C118.57 360.949 118.98 361.125 119.449 361.235C119.918 361.336 120.43 361.387 120.984 361.387C121.461 361.387 121.93 361.336 122.391 361.235C122.852 361.125 123.273 360.985 123.656 360.813C123.992 360.664 124.301 360.504 124.582 360.332C124.871 360.16 125.105 360.008 125.285 359.875H125.719V363.262C125.383 363.395 125.074 363.52 124.793 363.637C124.52 363.746 124.141 363.86 123.656 363.977C123.211 364.094 122.75 364.184 122.273 364.246C121.805 364.317 121.23 364.352 120.551 364.352ZM121.91 355.727C121.887 354.86 121.684 354.199 121.301 353.746C120.926 353.293 120.348 353.067 119.566 353.067C118.77 353.067 118.145 353.305 117.691 353.781C117.246 354.258 117 354.906 116.953 355.727H121.91ZM135.316 360.567V357.824C134.621 357.895 134.059 357.957 133.629 358.012C133.199 358.059 132.777 358.156 132.363 358.305C132.004 358.43 131.723 358.621 131.52 358.879C131.324 359.129 131.227 359.465 131.227 359.887C131.227 360.504 131.391 360.93 131.719 361.164C132.055 361.391 132.547 361.504 133.195 361.504C133.555 361.504 133.922 361.422 134.297 361.258C134.672 361.094 135.012 360.864 135.316 360.567ZM135.316 362.606C135.035 362.84 134.781 363.051 134.555 363.239C134.336 363.426 134.039 363.614 133.664 363.801C133.297 363.981 132.938 364.117 132.586 364.211C132.242 364.305 131.758 364.352 131.133 364.352C129.969 364.352 129 363.961 128.227 363.18C127.461 362.399 127.078 361.414 127.078 360.227C127.078 359.25 127.273 358.461 127.664 357.86C128.055 357.258 128.617 356.781 129.352 356.43C130.094 356.071 130.98 355.821 132.012 355.68C133.043 355.539 134.152 355.43 135.34 355.352V355.281C135.34 354.555 135.07 354.055 134.531 353.781C134 353.5 133.199 353.36 132.129 353.36C131.645 353.36 131.078 353.449 130.43 353.629C129.781 353.801 129.148 354.024 128.531 354.297H128.18V351.121C128.586 351.004 129.242 350.867 130.148 350.711C131.055 350.547 131.969 350.465 132.891 350.465C135.156 350.465 136.805 350.844 137.836 351.602C138.875 352.352 139.395 353.5 139.395 355.047V364H135.316V362.606ZM154.652 364H150.551V362.547C149.84 363.141 149.188 363.594 148.594 363.906C148 364.211 147.293 364.364 146.473 364.364C145.168 364.364 144.148 363.953 143.414 363.133C142.688 362.305 142.324 361.063 142.324 359.406V350.84H146.449V357.367C146.449 358.047 146.465 358.602 146.496 359.031C146.535 359.461 146.621 359.824 146.754 360.121C146.879 360.395 147.07 360.602 147.328 360.742C147.594 360.883 147.961 360.953 148.43 360.953C148.719 360.953 149.059 360.883 149.449 360.742C149.848 360.602 150.215 360.41 150.551 360.168V350.84H154.652V364ZM168.844 364.364C167.875 364.364 166.957 364.258 166.09 364.047C165.23 363.836 164.52 363.59 163.957 363.309V359.84H164.297C164.492 359.989 164.715 360.153 164.965 360.332C165.215 360.512 165.562 360.699 166.008 360.895C166.391 361.074 166.82 361.231 167.297 361.364C167.781 361.489 168.305 361.551 168.867 361.551C169.445 361.551 169.953 361.461 170.391 361.281C170.836 361.102 171.059 360.817 171.059 360.426C171.059 360.121 170.957 359.891 170.754 359.735C170.551 359.578 170.156 359.43 169.57 359.289C169.258 359.211 168.863 359.129 168.387 359.043C167.91 358.949 167.488 358.844 167.121 358.727C166.09 358.406 165.312 357.934 164.789 357.309C164.273 356.676 164.016 355.848 164.016 354.824C164.016 354.239 164.148 353.688 164.414 353.172C164.688 352.649 165.086 352.184 165.609 351.778C166.133 351.379 166.777 351.063 167.543 350.828C168.316 350.594 169.188 350.477 170.156 350.477C171.078 350.477 171.926 350.571 172.699 350.758C173.473 350.938 174.125 351.156 174.656 351.414V354.742H174.328C174.188 354.633 173.965 354.489 173.66 354.309C173.355 354.121 173.059 353.961 172.77 353.828C172.426 353.672 172.039 353.543 171.609 353.442C171.188 353.34 170.754 353.289 170.309 353.289C169.715 353.289 169.211 353.391 168.797 353.594C168.391 353.797 168.188 354.067 168.188 354.403C168.188 354.699 168.289 354.934 168.492 355.106C168.695 355.278 169.137 355.446 169.816 355.61C170.168 355.696 170.57 355.781 171.023 355.867C171.484 355.946 171.926 356.055 172.348 356.196C173.293 356.5 174.008 356.949 174.492 357.543C174.984 358.129 175.23 358.91 175.23 359.887C175.23 360.504 175.086 361.094 174.797 361.656C174.508 362.211 174.098 362.68 173.566 363.063C173.004 363.477 172.34 363.797 171.574 364.024C170.816 364.25 169.906 364.364 168.844 364.364ZM183.926 364.352C181.441 364.352 179.535 363.758 178.207 362.571C176.887 361.383 176.227 359.692 176.227 357.496C176.227 355.348 176.844 353.633 178.078 352.352C179.312 351.071 181.039 350.43 183.258 350.43C185.273 350.43 186.789 350.973 187.805 352.059C188.82 353.145 189.328 354.699 189.328 356.723V358.199H180.34C180.379 358.809 180.508 359.321 180.727 359.735C180.945 360.141 181.234 360.465 181.594 360.707C181.945 360.949 182.355 361.125 182.824 361.235C183.293 361.336 183.805 361.387 184.359 361.387C184.836 361.387 185.305 361.336 185.766 361.235C186.227 361.125 186.648 360.985 187.031 360.813C187.367 360.664 187.676 360.504 187.957 360.332C188.246 360.16 188.48 360.008 188.66 359.875H189.094V363.262C188.758 363.395 188.449 363.52 188.168 363.637C187.895 363.746 187.516 363.86 187.031 363.977C186.586 364.094 186.125 364.184 185.648 364.246C185.18 364.317 184.605 364.352 183.926 364.352ZM185.285 355.727C185.262 354.86 185.059 354.199 184.676 353.746C184.301 353.293 183.723 353.067 182.941 353.067C182.145 353.067 181.52 353.305 181.066 353.781C180.621 354.258 180.375 354.906 180.328 355.727H185.285ZM197.895 364.352C196.809 364.352 195.812 364.215 194.906 363.942C194.008 363.668 193.227 363.246 192.562 362.676C191.906 362.106 191.395 361.391 191.027 360.531C190.66 359.664 190.477 358.645 190.477 357.473C190.477 356.215 190.676 355.145 191.074 354.262C191.473 353.379 192.012 352.653 192.691 352.082C193.348 351.535 194.117 351.133 195 350.875C195.891 350.61 196.816 350.477 197.777 350.477C198.504 350.477 199.23 350.563 199.957 350.735C200.684 350.899 201.414 351.164 202.148 351.531V355.047H201.621C201.457 354.891 201.254 354.719 201.012 354.531C200.777 354.344 200.52 354.172 200.238 354.016C199.941 353.852 199.605 353.715 199.23 353.606C198.855 353.489 198.438 353.43 197.977 353.43C196.93 353.43 196.117 353.797 195.539 354.531C194.969 355.258 194.684 356.239 194.684 357.473C194.684 358.793 194.988 359.778 195.598 360.426C196.215 361.074 197.031 361.399 198.047 361.399C198.562 361.399 199.016 361.34 199.406 361.223C199.797 361.106 200.133 360.965 200.414 360.801C200.688 360.637 200.922 360.469 201.117 360.297C201.312 360.117 201.48 359.957 201.621 359.817H202.148V363.332C201.914 363.434 201.641 363.551 201.328 363.684C201.023 363.817 200.711 363.926 200.391 364.012C199.992 364.121 199.617 364.203 199.266 364.258C198.922 364.321 198.465 364.352 197.895 364.352ZM209.133 364.258C207.461 364.258 206.242 363.914 205.477 363.227C204.719 362.539 204.34 361.414 204.34 359.852V353.699H202.77V350.84H204.34V347.078H208.441V350.84H212.391V353.699H208.441V358.364C208.441 358.824 208.445 359.227 208.453 359.571C208.461 359.914 208.523 360.223 208.641 360.496C208.75 360.77 208.941 360.989 209.215 361.153C209.496 361.309 209.902 361.387 210.434 361.387C210.652 361.387 210.938 361.34 211.289 361.246C211.648 361.153 211.898 361.067 212.039 360.989H212.391V363.883C211.945 364 211.473 364.09 210.973 364.153C210.473 364.223 209.859 364.258 209.133 364.258ZM220.816 364.352C218.332 364.352 216.426 363.758 215.098 362.571C213.777 361.383 213.117 359.692 213.117 357.496C213.117 355.348 213.734 353.633 214.969 352.352C216.203 351.071 217.93 350.43 220.148 350.43C222.164 350.43 223.68 350.973 224.695 352.059C225.711 353.145 226.219 354.699 226.219 356.723V358.199H217.23C217.27 358.809 217.398 359.321 217.617 359.735C217.836 360.141 218.125 360.465 218.484 360.707C218.836 360.949 219.246 361.125 219.715 361.235C220.184 361.336 220.695 361.387 221.25 361.387C221.727 361.387 222.195 361.336 222.656 361.235C223.117 361.125 223.539 360.985 223.922 360.813C224.258 360.664 224.566 360.504 224.848 360.332C225.137 360.16 225.371 360.008 225.551 359.875H225.984V363.262C225.648 363.395 225.34 363.52 225.059 363.637C224.785 363.746 224.406 363.86 223.922 363.977C223.477 364.094 223.016 364.184 222.539 364.246C222.07 364.317 221.496 364.352 220.816 364.352ZM222.176 355.727C222.152 354.86 221.949 354.199 221.566 353.746C221.191 353.293 220.613 353.067 219.832 353.067C219.035 353.067 218.41 353.305 217.957 353.781C217.512 354.258 217.266 354.906 217.219 355.727H222.176ZM240.551 364H236.449V362.547C235.738 363.141 235.086 363.594 234.492 363.906C233.898 364.211 233.191 364.364 232.371 364.364C231.066 364.364 230.047 363.953 229.312 363.133C228.586 362.305 228.223 361.063 228.223 359.406V350.84H232.348V357.367C232.348 358.047 232.363 358.602 232.395 359.031C232.434 359.461 232.52 359.824 232.652 360.121C232.777 360.395 232.969 360.602 233.227 360.742C233.492 360.883 233.859 360.953 234.328 360.953C234.617 360.953 234.957 360.883 235.348 360.742C235.746 360.602 236.113 360.41 236.449 360.168V350.84H240.551V364ZM252.539 354.719H252.199C252.043 354.664 251.816 354.625 251.52 354.602C251.223 354.571 250.895 354.555 250.535 354.555C250.105 354.555 249.652 354.617 249.176 354.742C248.707 354.867 248.25 355.016 247.805 355.188V364H243.703V350.84H247.805V352.727C247.992 352.555 248.25 352.34 248.578 352.082C248.914 351.817 249.219 351.606 249.492 351.449C249.789 351.27 250.133 351.117 250.523 350.992C250.922 350.86 251.297 350.793 251.648 350.793C251.781 350.793 251.93 350.797 252.094 350.805C252.258 350.813 252.406 350.824 252.539 350.84V354.719ZM272.273 350.805C272.273 351.578 272.156 352.274 271.922 352.891C271.695 353.5 271.371 354.031 270.949 354.485C270.535 354.93 270.035 355.328 269.449 355.68C268.871 356.031 268.223 356.352 267.504 356.641V359.313H263.496V355.387C263.934 355.27 264.418 355.11 264.949 354.906C265.488 354.703 265.961 354.453 266.367 354.156C266.797 353.852 267.148 353.496 267.422 353.09C267.695 352.684 267.832 352.203 267.832 351.649C267.832 350.875 267.586 350.313 267.094 349.961C266.602 349.61 265.918 349.434 265.043 349.434C264.387 349.434 263.688 349.578 262.945 349.867C262.211 350.156 261.633 350.446 261.211 350.735H260.871V347.207C261.371 346.989 262.102 346.766 263.062 346.539C264.023 346.313 265.055 346.199 266.156 346.199C267.141 346.199 268.008 346.317 268.758 346.551C269.516 346.778 270.16 347.098 270.691 347.512C271.207 347.926 271.598 348.414 271.863 348.977C272.137 349.531 272.273 350.141 272.273 350.805ZM267.832 364H263.215V360.906H267.832V364Z" fill="#0F1941"/>
<path d="M18.8984 393V382.742H14.9922V381.367H24.3516V382.742H20.4453V393H18.8984ZM30.9453 388.641C30.9453 390.11 30.5911 391.245 29.8828 392.047C29.1745 392.844 28.2318 393.242 27.0547 393.242C25.8411 393.242 24.8854 392.831 24.1875 392.008C23.4948 391.18 23.1484 390.058 23.1484 388.641C23.1484 387.183 23.5052 386.05 24.2188 385.242C24.9375 384.435 25.8828 384.031 27.0547 384.031C28.2318 384.031 29.1745 384.435 29.8828 385.242C30.5911 386.045 30.9453 387.177 30.9453 388.641ZM29.4297 388.641C29.4297 387.511 29.224 386.672 28.8125 386.125C28.401 385.573 27.8151 385.297 27.0547 385.297C26.2891 385.297 25.6979 385.573 25.2812 386.125C24.8698 386.672 24.6641 387.511 24.6641 388.641C24.6641 389.735 24.8698 390.565 25.2812 391.133C25.6979 391.696 26.2891 391.977 27.0547 391.977C27.8099 391.977 28.3932 391.701 28.8047 391.149C29.2214 390.591 29.4297 389.755 29.4297 388.641ZM39.3125 393H37.8438V388.031C37.8438 387.63 37.8229 387.258 37.7812 386.914C37.7448 386.565 37.6719 386.287 37.5625 386.078C37.4427 385.86 37.276 385.698 37.0625 385.594C36.849 385.485 36.5573 385.43 36.1875 385.43C35.8229 385.43 35.4453 385.529 35.0547 385.727C34.6693 385.92 34.2917 386.172 33.9219 386.485V393H32.4531V384.274H33.9219V385.242C34.3594 384.852 34.7917 384.552 35.2188 384.344C35.6458 384.136 36.0964 384.031 36.5703 384.031C37.4297 384.031 38.1016 384.315 38.5859 384.883C39.0703 385.446 39.3125 386.263 39.3125 387.336V393ZM53.6953 388.406C53.6953 389.86 53.3464 391.018 52.6484 391.883C51.9557 392.742 51.0781 393.172 50.0156 393.172C49.5833 393.172 49.2005 393.123 48.8672 393.024C48.5339 392.925 48.1927 392.771 47.8438 392.563V396.219H46.375V384.274H47.8438V385.188C48.2083 384.86 48.612 384.586 49.0547 384.367C49.5026 384.143 49.9896 384.031 50.5156 384.031C51.5156 384.031 52.2943 384.427 52.8516 385.219C53.4141 386.011 53.6953 387.073 53.6953 388.406ZM52.1797 388.571C52.1797 387.576 52.0208 386.805 51.7031 386.258C51.3854 385.706 50.8698 385.43 50.1562 385.43C49.7396 385.43 49.3359 385.524 48.9453 385.711C48.5599 385.893 48.1927 386.13 47.8438 386.422V391.367C48.2292 391.555 48.5573 391.683 48.8281 391.75C49.1042 391.818 49.4193 391.852 49.7734 391.852C50.5339 391.852 51.125 391.573 51.5469 391.016C51.9688 390.459 52.1797 389.643 52.1797 388.571ZM60.0938 390.852V388.43C59.7448 388.461 59.3021 388.505 58.7656 388.563C58.2344 388.615 57.8047 388.69 57.4766 388.789C57.0859 388.909 56.763 389.094 56.5078 389.344C56.2526 389.589 56.125 389.933 56.125 390.375C56.125 390.875 56.2656 391.253 56.5469 391.508C56.8281 391.763 57.2396 391.891 57.7812 391.891C58.2448 391.891 58.6641 391.792 59.0391 391.594C59.4141 391.391 59.7656 391.143 60.0938 390.852ZM60.0938 392.071C59.974 392.159 59.8125 392.284 59.6094 392.446C59.4115 392.602 59.2188 392.727 59.0312 392.821C58.7708 392.956 58.5182 393.06 58.2734 393.133C58.0339 393.206 57.6953 393.242 57.2578 393.242C56.8984 393.242 56.5573 393.175 56.2344 393.039C55.9115 392.904 55.6276 392.714 55.3828 392.469C55.1484 392.229 54.9609 391.935 54.8203 391.586C54.6797 391.232 54.6094 390.86 54.6094 390.469C54.6094 389.865 54.737 389.352 54.9922 388.93C55.2474 388.503 55.651 388.164 56.2031 387.914C56.6927 387.69 57.2708 387.537 57.9375 387.453C58.6042 387.365 59.3229 387.3 60.0938 387.258V386.977C60.0938 386.633 60.0417 386.357 59.9375 386.149C59.8333 385.935 59.6875 385.771 59.5 385.656C59.3125 385.537 59.0833 385.459 58.8125 385.422C58.5417 385.38 58.263 385.36 57.9766 385.36C57.638 385.36 57.2396 385.412 56.7812 385.516C56.3229 385.615 55.8646 385.761 55.4062 385.953H55.3203V384.461C55.5911 384.383 55.9792 384.297 56.4844 384.203C56.9896 384.11 57.4896 384.063 57.9844 384.063C58.5833 384.063 59.0885 384.11 59.5 384.203C59.9115 384.297 60.2812 384.466 60.6094 384.711C60.9271 384.951 61.1641 385.261 61.3203 385.641C61.4766 386.021 61.5547 386.485 61.5547 387.031V393H60.0938V392.071ZM68.25 385.852H68.1719C68.0625 385.821 67.9453 385.802 67.8203 385.797C67.7005 385.787 67.5547 385.781 67.3828 385.781C66.987 385.781 66.5938 385.867 66.2031 386.039C65.8125 386.211 65.4427 386.466 65.0938 386.805V393H63.625V384.274H65.0938V385.571C65.6302 385.097 66.0964 384.763 66.4922 384.571C66.8932 384.373 67.2812 384.274 67.6562 384.274C67.8073 384.274 67.9193 384.279 67.9922 384.289C68.0703 384.295 68.1562 384.305 68.25 384.321V385.852ZM72.7812 393.196C72.1823 393.196 71.6328 393.104 71.1328 392.922C70.6328 392.735 70.2031 392.453 69.8438 392.078C69.4844 391.703 69.2057 391.232 69.0078 390.664C68.8099 390.091 68.7109 389.42 68.7109 388.649C68.7109 387.883 68.8125 387.222 69.0156 386.664C69.224 386.107 69.5 385.638 69.8438 385.258C70.1875 384.878 70.6146 384.586 71.125 384.383C71.6406 384.175 72.1927 384.071 72.7812 384.071C73.2604 384.071 73.7214 384.138 74.1641 384.274C74.612 384.409 75.0104 384.565 75.3594 384.742V386.391H75.2734C75.1693 386.302 75.0339 386.201 74.8672 386.086C74.7057 385.972 74.5078 385.854 74.2734 385.735C74.0703 385.63 73.8307 385.539 73.5547 385.461C73.2786 385.383 73.013 385.344 72.7578 385.344C71.9974 385.344 71.3854 385.633 70.9219 386.211C70.4635 386.784 70.2344 387.597 70.2344 388.649C70.2344 389.68 70.4557 390.485 70.8984 391.063C71.3464 391.636 71.9661 391.922 72.7578 391.922C73.237 391.922 73.6927 391.823 74.125 391.625C74.5573 391.427 74.9401 391.172 75.2734 390.86H75.3594V392.508C75.2135 392.576 75.0312 392.659 74.8125 392.758C74.5938 392.852 74.3958 392.922 74.2188 392.969C73.9688 393.042 73.7448 393.097 73.5469 393.133C73.349 393.175 73.0938 393.196 72.7812 393.196ZM83.8828 388.641C83.8828 390.11 83.5286 391.245 82.8203 392.047C82.112 392.844 81.1693 393.242 79.9922 393.242C78.7786 393.242 77.8229 392.831 77.125 392.008C76.4323 391.18 76.0859 390.058 76.0859 388.641C76.0859 387.183 76.4427 386.05 77.1562 385.242C77.875 384.435 78.8203 384.031 79.9922 384.031C81.1693 384.031 82.112 384.435 82.8203 385.242C83.5286 386.045 83.8828 387.177 83.8828 388.641ZM82.3672 388.641C82.3672 387.511 82.1615 386.672 81.75 386.125C81.3385 385.573 80.7526 385.297 79.9922 385.297C79.2266 385.297 78.6354 385.573 78.2188 386.125C77.8073 386.672 77.6016 387.511 77.6016 388.641C77.6016 389.735 77.8073 390.565 78.2188 391.133C78.6354 391.696 79.2266 391.977 79.9922 391.977C80.7474 391.977 81.3307 391.701 81.7422 391.149C82.1589 390.591 82.3672 389.755 82.3672 388.641ZM92.1875 393H90.7188V392.031C90.2656 392.427 89.8359 392.729 89.4297 392.938C89.0234 393.141 88.5703 393.242 88.0703 393.242C87.6901 393.242 87.3307 393.18 86.9922 393.055C86.6589 392.93 86.3672 392.732 86.1172 392.461C85.8672 392.19 85.6719 391.849 85.5312 391.438C85.3958 391.026 85.3281 390.526 85.3281 389.938V384.274H86.7969V389.242C86.7969 389.706 86.8125 390.091 86.8438 390.399C86.8802 390.701 86.9583 390.966 87.0781 391.196C87.1979 391.42 87.3594 391.584 87.5625 391.688C87.7708 391.792 88.0677 391.844 88.4531 391.844C88.8125 391.844 89.1953 391.742 89.6016 391.539C90.0078 391.336 90.3802 391.086 90.7188 390.789V384.274H92.1875V393ZM98.9375 385.852H98.8594C98.75 385.821 98.6328 385.802 98.5078 385.797C98.388 385.787 98.2422 385.781 98.0703 385.781C97.6745 385.781 97.2812 385.867 96.8906 386.039C96.5 386.211 96.1302 386.466 95.7812 386.805V393H94.3125V384.274H95.7812V385.571C96.3177 385.097 96.7839 384.763 97.1797 384.571C97.5807 384.373 97.9688 384.274 98.3438 384.274C98.4948 384.274 98.6068 384.279 98.6797 384.289C98.7578 384.295 98.8438 384.305 98.9375 384.321V385.852ZM102.438 393.211C101.854 393.211 101.307 393.133 100.797 392.977C100.292 392.821 99.8724 392.654 99.5391 392.477V390.828H99.6172C99.7422 390.927 99.888 391.037 100.055 391.156C100.227 391.276 100.453 391.401 100.734 391.531C100.984 391.646 101.258 391.748 101.555 391.836C101.857 391.925 102.169 391.969 102.492 391.969C102.727 391.969 102.977 391.943 103.242 391.891C103.508 391.834 103.706 391.763 103.836 391.68C104.018 391.56 104.148 391.433 104.227 391.297C104.31 391.162 104.352 390.959 104.352 390.688C104.352 390.339 104.255 390.076 104.062 389.899C103.875 389.722 103.539 389.573 103.055 389.453C102.867 389.406 102.622 389.352 102.32 389.289C102.018 389.227 101.74 389.159 101.484 389.086C100.818 388.893 100.333 388.597 100.031 388.196C99.7292 387.789 99.5781 387.3 99.5781 386.727C99.5781 385.94 99.875 385.3 100.469 384.805C101.062 384.31 101.852 384.063 102.836 384.063C103.32 384.063 103.807 384.123 104.297 384.242C104.786 384.362 105.198 384.513 105.531 384.696V386.266H105.453C105.078 385.969 104.659 385.735 104.195 385.563C103.737 385.391 103.273 385.305 102.805 385.305C102.32 385.305 101.911 385.406 101.578 385.61C101.245 385.813 101.078 386.12 101.078 386.531C101.078 386.896 101.177 387.17 101.375 387.352C101.573 387.529 101.891 387.675 102.328 387.789C102.547 387.847 102.789 387.904 103.055 387.961C103.326 388.013 103.609 388.076 103.906 388.149C104.552 388.31 105.036 388.578 105.359 388.953C105.688 389.328 105.852 389.839 105.852 390.485C105.852 390.86 105.776 391.216 105.625 391.555C105.479 391.888 105.263 392.175 104.977 392.414C104.664 392.675 104.31 392.873 103.914 393.008C103.523 393.143 103.031 393.211 102.438 393.211ZM119.539 388.406C119.539 389.86 119.19 391.018 118.492 391.883C117.799 392.742 116.922 393.172 115.859 393.172C115.427 393.172 115.044 393.123 114.711 393.024C114.378 392.925 114.036 392.771 113.688 392.563V396.219H112.219V384.274H113.688V385.188C114.052 384.86 114.456 384.586 114.898 384.367C115.346 384.143 115.833 384.031 116.359 384.031C117.359 384.031 118.138 384.427 118.695 385.219C119.258 386.011 119.539 387.073 119.539 388.406ZM118.023 388.571C118.023 387.576 117.865 386.805 117.547 386.258C117.229 385.706 116.714 385.43 116 385.43C115.583 385.43 115.18 385.524 114.789 385.711C114.404 385.893 114.036 386.13 113.688 386.422V391.367C114.073 391.555 114.401 391.683 114.672 391.75C114.948 391.818 115.263 391.852 115.617 391.852C116.378 391.852 116.969 391.573 117.391 391.016C117.812 390.459 118.023 389.643 118.023 388.571ZM125.688 385.852H125.609C125.5 385.821 125.383 385.802 125.258 385.797C125.138 385.787 124.992 385.781 124.82 385.781C124.424 385.781 124.031 385.867 123.641 386.039C123.25 386.211 122.88 386.466 122.531 386.805V393H121.062V384.274H122.531V385.571C123.068 385.097 123.534 384.763 123.93 384.571C124.331 384.373 124.719 384.274 125.094 384.274C125.245 384.274 125.357 384.279 125.43 384.289C125.508 384.295 125.594 384.305 125.688 384.321V385.852ZM133.93 388.641C133.93 390.11 133.576 391.245 132.867 392.047C132.159 392.844 131.216 393.242 130.039 393.242C128.826 393.242 127.87 392.831 127.172 392.008C126.479 391.18 126.133 390.058 126.133 388.641C126.133 387.183 126.49 386.05 127.203 385.242C127.922 384.435 128.867 384.031 130.039 384.031C131.216 384.031 132.159 384.435 132.867 385.242C133.576 386.045 133.93 387.177 133.93 388.641ZM132.414 388.641C132.414 387.511 132.208 386.672 131.797 386.125C131.385 385.573 130.799 385.297 130.039 385.297C129.273 385.297 128.682 385.573 128.266 386.125C127.854 386.672 127.648 387.511 127.648 388.641C127.648 389.735 127.854 390.565 128.266 391.133C128.682 391.696 129.273 391.977 130.039 391.977C130.794 391.977 131.378 391.701 131.789 391.149C132.206 390.591 132.414 389.755 132.414 388.641ZM140.031 382.25H139.953C139.823 382.203 139.635 382.159 139.391 382.117C139.146 382.071 138.927 382.047 138.734 382.047C138.115 382.047 137.672 382.188 137.406 382.469C137.146 382.745 137.016 383.248 137.016 383.977V384.274H139.445V385.492H137.062V393H135.594V385.492H134.602V384.274H135.594V383.985C135.594 382.933 135.846 382.133 136.352 381.586C136.857 381.039 137.581 380.766 138.523 380.766C138.794 380.766 139.06 380.781 139.32 380.813C139.581 380.839 139.818 380.87 140.031 380.906V382.25ZM144.164 393.203C142.773 393.203 141.693 392.813 140.922 392.031C140.156 391.245 139.773 390.13 139.773 388.688C139.773 387.266 140.146 386.136 140.891 385.297C141.635 384.453 142.609 384.031 143.812 384.031C144.354 384.031 144.833 384.11 145.25 384.266C145.667 384.422 146.031 384.667 146.344 385C146.656 385.334 146.896 385.742 147.062 386.227C147.229 386.706 147.312 387.295 147.312 387.992V388.789H141.266C141.266 389.805 141.521 390.581 142.031 391.117C142.542 391.654 143.247 391.922 144.148 391.922C144.471 391.922 144.786 391.886 145.094 391.813C145.406 391.74 145.688 391.646 145.938 391.531C146.203 391.412 146.427 391.297 146.609 391.188C146.792 391.073 146.943 390.966 147.062 390.867H147.148V392.469C146.977 392.537 146.763 392.623 146.508 392.727C146.253 392.826 146.023 392.904 145.82 392.961C145.534 393.039 145.273 393.099 145.039 393.141C144.81 393.183 144.518 393.203 144.164 393.203ZM145.883 387.664C145.872 387.268 145.826 386.927 145.742 386.641C145.659 386.354 145.539 386.112 145.383 385.914C145.211 385.696 144.99 385.529 144.719 385.414C144.453 385.3 144.122 385.242 143.727 385.242C143.336 385.242 143.003 385.302 142.727 385.422C142.456 385.537 142.208 385.706 141.984 385.93C141.766 386.159 141.599 386.414 141.484 386.696C141.37 386.972 141.297 387.295 141.266 387.664H145.883ZM151.156 393.211C150.573 393.211 150.026 393.133 149.516 392.977C149.01 392.821 148.591 392.654 148.258 392.477V390.828H148.336C148.461 390.927 148.607 391.037 148.773 391.156C148.945 391.276 149.172 391.401 149.453 391.531C149.703 391.646 149.977 391.748 150.273 391.836C150.576 391.925 150.888 391.969 151.211 391.969C151.445 391.969 151.695 391.943 151.961 391.891C152.227 391.834 152.424 391.763 152.555 391.68C152.737 391.56 152.867 391.433 152.945 391.297C153.029 391.162 153.07 390.959 153.07 390.688C153.07 390.339 152.974 390.076 152.781 389.899C152.594 389.722 152.258 389.573 151.773 389.453C151.586 389.406 151.341 389.352 151.039 389.289C150.737 389.227 150.458 389.159 150.203 389.086C149.536 388.893 149.052 388.597 148.75 388.196C148.448 387.789 148.297 387.3 148.297 386.727C148.297 385.94 148.594 385.3 149.188 384.805C149.781 384.31 150.57 384.063 151.555 384.063C152.039 384.063 152.526 384.123 153.016 384.242C153.505 384.362 153.917 384.513 154.25 384.696V386.266H154.172C153.797 385.969 153.378 385.735 152.914 385.563C152.456 385.391 151.992 385.305 151.523 385.305C151.039 385.305 150.63 385.406 150.297 385.61C149.964 385.813 149.797 386.12 149.797 386.531C149.797 386.896 149.896 387.17 150.094 387.352C150.292 387.529 150.609 387.675 151.047 387.789C151.266 387.847 151.508 387.904 151.773 387.961C152.044 388.013 152.328 388.076 152.625 388.149C153.271 388.31 153.755 388.578 154.078 388.953C154.406 389.328 154.57 389.839 154.57 390.485C154.57 390.86 154.495 391.216 154.344 391.555C154.198 391.888 153.982 392.175 153.695 392.414C153.383 392.675 153.029 392.873 152.633 393.008C152.242 393.143 151.75 393.211 151.156 393.211ZM158.297 393.211C157.714 393.211 157.167 393.133 156.656 392.977C156.151 392.821 155.732 392.654 155.398 392.477V390.828H155.477C155.602 390.927 155.747 391.037 155.914 391.156C156.086 391.276 156.312 391.401 156.594 391.531C156.844 391.646 157.117 391.748 157.414 391.836C157.716 391.925 158.029 391.969 158.352 391.969C158.586 391.969 158.836 391.943 159.102 391.891C159.367 391.834 159.565 391.763 159.695 391.68C159.878 391.56 160.008 391.433 160.086 391.297C160.169 391.162 160.211 390.959 160.211 390.688C160.211 390.339 160.115 390.076 159.922 389.899C159.734 389.722 159.398 389.573 158.914 389.453C158.727 389.406 158.482 389.352 158.18 389.289C157.878 389.227 157.599 389.159 157.344 389.086C156.677 388.893 156.193 388.597 155.891 388.196C155.589 387.789 155.438 387.3 155.438 386.727C155.438 385.94 155.734 385.3 156.328 384.805C156.922 384.31 157.711 384.063 158.695 384.063C159.18 384.063 159.667 384.123 160.156 384.242C160.646 384.362 161.057 384.513 161.391 384.696V386.266H161.312C160.938 385.969 160.518 385.735 160.055 385.563C159.596 385.391 159.133 385.305 158.664 385.305C158.18 385.305 157.771 385.406 157.438 385.61C157.104 385.813 156.938 386.12 156.938 386.531C156.938 386.896 157.036 387.17 157.234 387.352C157.432 387.529 157.75 387.675 158.188 387.789C158.406 387.847 158.648 387.904 158.914 387.961C159.185 388.013 159.469 388.076 159.766 388.149C160.411 388.31 160.896 388.578 161.219 388.953C161.547 389.328 161.711 389.839 161.711 390.485C161.711 390.86 161.635 391.216 161.484 391.555C161.339 391.888 161.122 392.175 160.836 392.414C160.523 392.675 160.169 392.873 159.773 393.008C159.383 393.143 158.891 393.211 158.297 393.211ZM164.578 393H163.109V384.274H164.578V393ZM164.68 382.813H163.008V381.289H164.68V382.813ZM173.914 388.641C173.914 390.11 173.56 391.245 172.852 392.047C172.143 392.844 171.201 393.242 170.023 393.242C168.81 393.242 167.854 392.831 167.156 392.008C166.464 391.18 166.117 390.058 166.117 388.641C166.117 387.183 166.474 386.05 167.188 385.242C167.906 384.435 168.852 384.031 170.023 384.031C171.201 384.031 172.143 384.435 172.852 385.242C173.56 386.045 173.914 387.177 173.914 388.641ZM172.398 388.641C172.398 387.511 172.193 386.672 171.781 386.125C171.37 385.573 170.784 385.297 170.023 385.297C169.258 385.297 168.667 385.573 168.25 386.125C167.839 386.672 167.633 387.511 167.633 388.641C167.633 389.735 167.839 390.565 168.25 391.133C168.667 391.696 169.258 391.977 170.023 391.977C170.779 391.977 171.362 391.701 171.773 391.149C172.19 390.591 172.398 389.755 172.398 388.641ZM182.281 393H180.812V388.031C180.812 387.63 180.792 387.258 180.75 386.914C180.714 386.565 180.641 386.287 180.531 386.078C180.411 385.86 180.245 385.698 180.031 385.594C179.818 385.485 179.526 385.43 179.156 385.43C178.792 385.43 178.414 385.529 178.023 385.727C177.638 385.92 177.26 386.172 176.891 386.485V393H175.422V384.274H176.891V385.242C177.328 384.852 177.76 384.552 178.188 384.344C178.615 384.136 179.065 384.031 179.539 384.031C180.398 384.031 181.07 384.315 181.555 384.883C182.039 385.446 182.281 386.263 182.281 387.336V393ZM191.203 393H189.734V388.031C189.734 387.63 189.714 387.258 189.672 386.914C189.635 386.565 189.562 386.287 189.453 386.078C189.333 385.86 189.167 385.698 188.953 385.594C188.74 385.485 188.448 385.43 188.078 385.43C187.714 385.43 187.336 385.529 186.945 385.727C186.56 385.92 186.182 386.172 185.812 386.485V393H184.344V384.274H185.812V385.242C186.25 384.852 186.682 384.552 187.109 384.344C187.536 384.136 187.987 384.031 188.461 384.031C189.32 384.031 189.992 384.315 190.477 384.883C190.961 385.446 191.203 386.263 191.203 387.336V393ZM197.055 393.203C195.664 393.203 194.583 392.813 193.812 392.031C193.047 391.245 192.664 390.13 192.664 388.688C192.664 387.266 193.036 386.136 193.781 385.297C194.526 384.453 195.5 384.031 196.703 384.031C197.245 384.031 197.724 384.11 198.141 384.266C198.557 384.422 198.922 384.667 199.234 385C199.547 385.334 199.786 385.742 199.953 386.227C200.12 386.706 200.203 387.295 200.203 387.992V388.789H194.156C194.156 389.805 194.411 390.581 194.922 391.117C195.432 391.654 196.138 391.922 197.039 391.922C197.362 391.922 197.677 391.886 197.984 391.813C198.297 391.74 198.578 391.646 198.828 391.531C199.094 391.412 199.318 391.297 199.5 391.188C199.682 391.073 199.833 390.966 199.953 390.867H200.039V392.469C199.867 392.537 199.654 392.623 199.398 392.727C199.143 392.826 198.914 392.904 198.711 392.961C198.424 393.039 198.164 393.099 197.93 393.141C197.701 393.183 197.409 393.203 197.055 393.203ZM198.773 387.664C198.763 387.268 198.716 386.927 198.633 386.641C198.549 386.354 198.43 386.112 198.273 385.914C198.102 385.696 197.88 385.529 197.609 385.414C197.344 385.3 197.013 385.242 196.617 385.242C196.227 385.242 195.893 385.302 195.617 385.422C195.346 385.537 195.099 385.706 194.875 385.93C194.656 386.159 194.49 386.414 194.375 386.696C194.26 386.972 194.188 387.295 194.156 387.664H198.773ZM203.188 393H201.719V380.844H203.188V393ZM217.203 393H215.734V388.031C215.734 387.63 215.714 387.258 215.672 386.914C215.635 386.565 215.562 386.287 215.453 386.078C215.333 385.86 215.167 385.698 214.953 385.594C214.74 385.485 214.448 385.43 214.078 385.43C213.714 385.43 213.336 385.529 212.945 385.727C212.56 385.92 212.182 386.172 211.812 386.485V393H210.344V384.274H211.812V385.242C212.25 384.852 212.682 384.552 213.109 384.344C213.536 384.136 213.987 384.031 214.461 384.031C215.32 384.031 215.992 384.315 216.477 384.883C216.961 385.446 217.203 386.263 217.203 387.336V393ZM222.078 380.844L220.039 385.211H218.961L220.188 380.844H222.078ZM227.516 390.852V388.43C227.167 388.461 226.724 388.505 226.188 388.563C225.656 388.615 225.227 388.69 224.898 388.789C224.508 388.909 224.185 389.094 223.93 389.344C223.674 389.589 223.547 389.933 223.547 390.375C223.547 390.875 223.688 391.253 223.969 391.508C224.25 391.763 224.661 391.891 225.203 391.891C225.667 391.891 226.086 391.792 226.461 391.594C226.836 391.391 227.188 391.143 227.516 390.852ZM227.516 392.071C227.396 392.159 227.234 392.284 227.031 392.446C226.833 392.602 226.641 392.727 226.453 392.821C226.193 392.956 225.94 393.06 225.695 393.133C225.456 393.206 225.117 393.242 224.68 393.242C224.32 393.242 223.979 393.175 223.656 393.039C223.333 392.904 223.049 392.714 222.805 392.469C222.57 392.229 222.383 391.935 222.242 391.586C222.102 391.232 222.031 390.86 222.031 390.469C222.031 389.865 222.159 389.352 222.414 388.93C222.669 388.503 223.073 388.164 223.625 387.914C224.115 387.69 224.693 387.537 225.359 387.453C226.026 387.365 226.745 387.3 227.516 387.258V386.977C227.516 386.633 227.464 386.357 227.359 386.149C227.255 385.935 227.109 385.771 226.922 385.656C226.734 385.537 226.505 385.459 226.234 385.422C225.964 385.38 225.685 385.36 225.398 385.36C225.06 385.36 224.661 385.412 224.203 385.516C223.745 385.615 223.286 385.761 222.828 385.953H222.742V384.461C223.013 384.383 223.401 384.297 223.906 384.203C224.411 384.11 224.911 384.063 225.406 384.063C226.005 384.063 226.51 384.11 226.922 384.203C227.333 384.297 227.703 384.466 228.031 384.711C228.349 384.951 228.586 385.261 228.742 385.641C228.898 386.021 228.977 386.485 228.977 387.031V393H227.516V392.071ZM243.367 388.406C243.367 389.86 243.018 391.018 242.32 391.883C241.628 392.742 240.75 393.172 239.688 393.172C239.255 393.172 238.872 393.123 238.539 393.024C238.206 392.925 237.865 392.771 237.516 392.563V396.219H236.047V384.274H237.516V385.188C237.88 384.86 238.284 384.586 238.727 384.367C239.174 384.143 239.661 384.031 240.188 384.031C241.188 384.031 241.966 384.427 242.523 385.219C243.086 386.011 243.367 387.073 243.367 388.406ZM241.852 388.571C241.852 387.576 241.693 386.805 241.375 386.258C241.057 385.706 240.542 385.43 239.828 385.43C239.411 385.43 239.008 385.524 238.617 385.711C238.232 385.893 237.865 386.13 237.516 386.422V391.367C237.901 391.555 238.229 391.683 238.5 391.75C238.776 391.818 239.091 391.852 239.445 391.852C240.206 391.852 240.797 391.573 241.219 391.016C241.641 390.459 241.852 389.643 241.852 388.571ZM249.766 390.852V388.43C249.417 388.461 248.974 388.505 248.438 388.563C247.906 388.615 247.477 388.69 247.148 388.789C246.758 388.909 246.435 389.094 246.18 389.344C245.924 389.589 245.797 389.933 245.797 390.375C245.797 390.875 245.938 391.253 246.219 391.508C246.5 391.763 246.911 391.891 247.453 391.891C247.917 391.891 248.336 391.792 248.711 391.594C249.086 391.391 249.438 391.143 249.766 390.852ZM249.766 392.071C249.646 392.159 249.484 392.284 249.281 392.446C249.083 392.602 248.891 392.727 248.703 392.821C248.443 392.956 248.19 393.06 247.945 393.133C247.706 393.206 247.367 393.242 246.93 393.242C246.57 393.242 246.229 393.175 245.906 393.039C245.583 392.904 245.299 392.714 245.055 392.469C244.82 392.229 244.633 391.935 244.492 391.586C244.352 391.232 244.281 390.86 244.281 390.469C244.281 389.865 244.409 389.352 244.664 388.93C244.919 388.503 245.323 388.164 245.875 387.914C246.365 387.69 246.943 387.537 247.609 387.453C248.276 387.365 248.995 387.3 249.766 387.258V386.977C249.766 386.633 249.714 386.357 249.609 386.149C249.505 385.935 249.359 385.771 249.172 385.656C248.984 385.537 248.755 385.459 248.484 385.422C248.214 385.38 247.935 385.36 247.648 385.36C247.31 385.36 246.911 385.412 246.453 385.516C245.995 385.615 245.536 385.761 245.078 385.953H244.992V384.461C245.263 384.383 245.651 384.297 246.156 384.203C246.661 384.11 247.161 384.063 247.656 384.063C248.255 384.063 248.76 384.11 249.172 384.203C249.583 384.297 249.953 384.466 250.281 384.711C250.599 384.951 250.836 385.261 250.992 385.641C251.148 386.021 251.227 386.485 251.227 387.031V393H249.766V392.071ZM255.656 393.211C255.073 393.211 254.526 393.133 254.016 392.977C253.51 392.821 253.091 392.654 252.758 392.477V390.828H252.836C252.961 390.927 253.107 391.037 253.273 391.156C253.445 391.276 253.672 391.401 253.953 391.531C254.203 391.646 254.477 391.748 254.773 391.836C255.076 391.925 255.388 391.969 255.711 391.969C255.945 391.969 256.195 391.943 256.461 391.891C256.727 391.834 256.924 391.763 257.055 391.68C257.237 391.56 257.367 391.433 257.445 391.297C257.529 391.162 257.57 390.959 257.57 390.688C257.57 390.339 257.474 390.076 257.281 389.899C257.094 389.722 256.758 389.573 256.273 389.453C256.086 389.406 255.841 389.352 255.539 389.289C255.237 389.227 254.958 389.159 254.703 389.086C254.036 388.893 253.552 388.597 253.25 388.196C252.948 387.789 252.797 387.3 252.797 386.727C252.797 385.94 253.094 385.3 253.688 384.805C254.281 384.31 255.07 384.063 256.055 384.063C256.539 384.063 257.026 384.123 257.516 384.242C258.005 384.362 258.417 384.513 258.75 384.696V386.266H258.672C258.297 385.969 257.878 385.735 257.414 385.563C256.956 385.391 256.492 385.305 256.023 385.305C255.539 385.305 255.13 385.406 254.797 385.61C254.464 385.813 254.297 386.12 254.297 386.531C254.297 386.896 254.396 387.17 254.594 387.352C254.792 387.529 255.109 387.675 255.547 387.789C255.766 387.847 256.008 387.904 256.273 387.961C256.544 388.013 256.828 388.076 257.125 388.149C257.771 388.31 258.255 388.578 258.578 388.953C258.906 389.328 259.07 389.839 259.07 390.485C259.07 390.86 258.995 391.216 258.844 391.555C258.698 391.888 258.482 392.175 258.195 392.414C257.883 392.675 257.529 392.873 257.133 393.008C256.742 393.143 256.25 393.211 255.656 393.211ZM20.6562 401.25H20.5781C20.4479 401.203 20.2604 401.159 20.0156 401.117C19.7708 401.071 19.5521 401.047 19.3594 401.047C18.7396 401.047 18.2969 401.188 18.0312 401.469C17.7708 401.745 17.6406 402.248 17.6406 402.977V403.274H20.0703V404.492H17.6875V412H16.2188V404.492H15.2266V403.274H16.2188V402.985C16.2188 401.933 16.4714 401.133 16.9766 400.586C17.4818 400.039 18.2057 399.766 19.1484 399.766C19.4193 399.766 19.6849 399.781 19.9453 399.813C20.2057 399.839 20.4427 399.87 20.6562 399.906V401.25ZM28.1797 407.641C28.1797 409.11 27.8255 410.245 27.1172 411.047C26.4089 411.844 25.4661 412.242 24.2891 412.242C23.0755 412.242 22.1198 411.831 21.4219 411.008C20.7292 410.18 20.3828 409.058 20.3828 407.641C20.3828 406.183 20.7396 405.05 21.4531 404.242C22.1719 403.435 23.1172 403.031 24.2891 403.031C25.4661 403.031 26.4089 403.435 27.1172 404.242C27.8255 405.045 28.1797 406.177 28.1797 407.641ZM26.6641 407.641C26.6641 406.511 26.4583 405.672 26.0469 405.125C25.6354 404.573 25.0495 404.297 24.2891 404.297C23.5234 404.297 22.9323 404.573 22.5156 405.125C22.1042 405.672 21.8984 406.511 21.8984 407.641C21.8984 408.735 22.1042 409.565 22.5156 410.133C22.9323 410.696 23.5234 410.977 24.2891 410.977C25.0443 410.977 25.6276 410.701 26.0391 410.149C26.4557 409.591 26.6641 408.755 26.6641 407.641ZM34.3125 404.852H34.2344C34.125 404.821 34.0078 404.802 33.8828 404.797C33.763 404.787 33.6172 404.781 33.4453 404.781C33.0495 404.781 32.6562 404.867 32.2656 405.039C31.875 405.211 31.5052 405.466 31.1562 405.805V412H29.6875V403.274H31.1562V404.571C31.6927 404.097 32.1589 403.763 32.5547 403.571C32.9557 403.373 33.3438 403.274 33.7188 403.274C33.8698 403.274 33.9818 403.279 34.0547 403.289C34.1328 403.295 34.2188 403.305 34.3125 403.321V404.852ZM38.8438 412.196C38.2448 412.196 37.6953 412.104 37.1953 411.922C36.6953 411.735 36.2656 411.453 35.9062 411.078C35.5469 410.703 35.2682 410.232 35.0703 409.664C34.8724 409.091 34.7734 408.42 34.7734 407.649C34.7734 406.883 34.875 406.222 35.0781 405.664C35.2865 405.107 35.5625 404.638 35.9062 404.258C36.25 403.878 36.6771 403.586 37.1875 403.383C37.7031 403.175 38.2552 403.071 38.8438 403.071C39.3229 403.071 39.7839 403.138 40.2266 403.274C40.6745 403.409 41.0729 403.565 41.4219 403.742V405.391H41.3359C41.2318 405.302 41.0964 405.201 40.9297 405.086C40.7682 404.972 40.5703 404.854 40.3359 404.735C40.1328 404.63 39.8932 404.539 39.6172 404.461C39.3411 404.383 39.0755 404.344 38.8203 404.344C38.0599 404.344 37.4479 404.633 36.9844 405.211C36.526 405.784 36.2969 406.597 36.2969 407.649C36.2969 408.68 36.5182 409.485 36.9609 410.063C37.4089 410.636 38.0286 410.922 38.8203 410.922C39.2995 410.922 39.7552 410.823 40.1875 410.625C40.6198 410.427 41.0026 410.172 41.3359 409.86H41.4219V411.508C41.276 411.576 41.0938 411.659 40.875 411.758C40.6562 411.852 40.4583 411.922 40.2812 411.969C40.0312 412.042 39.8073 412.097 39.6094 412.133C39.4115 412.175 39.1562 412.196 38.8438 412.196ZM46.5547 412.203C45.1641 412.203 44.0833 411.813 43.3125 411.031C42.5469 410.245 42.1641 409.13 42.1641 407.688C42.1641 406.266 42.5365 405.136 43.2812 404.297C44.026 403.453 45 403.031 46.2031 403.031C46.7448 403.031 47.224 403.11 47.6406 403.266C48.0573 403.422 48.4219 403.667 48.7344 404C49.0469 404.334 49.2865 404.742 49.4531 405.227C49.6198 405.706 49.7031 406.295 49.7031 406.992V407.789H43.6562C43.6562 408.805 43.9115 409.581 44.4219 410.117C44.9323 410.654 45.638 410.922 46.5391 410.922C46.862 410.922 47.1771 410.886 47.4844 410.813C47.7969 410.74 48.0781 410.646 48.3281 410.531C48.5938 410.412 48.8177 410.297 49 410.188C49.1823 410.073 49.3333 409.966 49.4531 409.867H49.5391V411.469C49.3672 411.537 49.1536 411.623 48.8984 411.727C48.6432 411.826 48.4141 411.904 48.2109 411.961C47.9245 412.039 47.6641 412.099 47.4297 412.141C47.2005 412.183 46.9089 412.203 46.5547 412.203ZM48.2734 406.664C48.263 406.268 48.2161 405.927 48.1328 405.641C48.0495 405.354 47.9297 405.112 47.7734 404.914C47.6016 404.696 47.3802 404.529 47.1094 404.414C46.8438 404.3 46.513 404.242 46.1172 404.242C45.7266 404.242 45.3932 404.302 45.1172 404.422C44.8464 404.537 44.599 404.706 44.375 404.93C44.1562 405.159 43.9896 405.414 43.875 405.696C43.7604 405.972 43.6875 406.295 43.6562 406.664H48.2734ZM48.6484 398.906L46.5156 401.828H45.3516L46.75 398.906H48.6484ZM61.0938 412V406.953C61.0938 406.552 61.0781 406.183 61.0469 405.844C61.0156 405.5 60.9505 405.232 60.8516 405.039C60.7474 404.831 60.599 404.677 60.4062 404.578C60.2135 404.479 59.9531 404.43 59.625 404.43C59.3229 404.43 58.9974 404.524 58.6484 404.711C58.3047 404.893 57.9479 405.159 57.5781 405.508C57.5833 405.597 57.5885 405.703 57.5938 405.828C57.6042 405.948 57.6094 406.091 57.6094 406.258V412H56.1406V406.953C56.1406 406.552 56.125 406.183 56.0938 405.844C56.0625 405.5 55.9974 405.232 55.8984 405.039C55.7943 404.831 55.6458 404.677 55.4531 404.578C55.2604 404.479 55 404.43 54.6719 404.43C54.3542 404.43 54.0208 404.529 53.6719 404.727C53.3229 404.925 52.9844 405.177 52.6562 405.485V412H51.1875V403.274H52.6562V404.242C53.0417 403.857 53.4219 403.56 53.7969 403.352C54.1771 403.138 54.5938 403.031 55.0469 403.031C55.5625 403.031 56.0182 403.149 56.4141 403.383C56.8151 403.617 57.1198 404.003 57.3281 404.539C57.7708 404.045 58.2031 403.67 58.625 403.414C59.0469 403.159 59.5052 403.031 60 403.031C60.375 403.031 60.7161 403.091 61.0234 403.211C61.3307 403.326 61.599 403.513 61.8281 403.774C62.0625 404.039 62.2422 404.37 62.3672 404.766C62.4974 405.162 62.5625 405.659 62.5625 406.258V412H61.0938ZM68.4141 412.203C67.0234 412.203 65.9427 411.813 65.1719 411.031C64.4062 410.245 64.0234 409.13 64.0234 407.688C64.0234 406.266 64.3958 405.136 65.1406 404.297C65.8854 403.453 66.8594 403.031 68.0625 403.031C68.6042 403.031 69.0833 403.11 69.5 403.266C69.9167 403.422 70.2812 403.667 70.5938 404C70.9062 404.334 71.1458 404.742 71.3125 405.227C71.4792 405.706 71.5625 406.295 71.5625 406.992V407.789H65.5156C65.5156 408.805 65.7708 409.581 66.2812 410.117C66.7917 410.654 67.4974 410.922 68.3984 410.922C68.7214 410.922 69.0365 410.886 69.3438 410.813C69.6562 410.74 69.9375 410.646 70.1875 410.531C70.4531 410.412 70.6771 410.297 70.8594 410.188C71.0417 410.073 71.1927 409.966 71.3125 409.867H71.3984V411.469C71.2266 411.537 71.013 411.623 70.7578 411.727C70.5026 411.826 70.2734 411.904 70.0703 411.961C69.7839 412.039 69.5234 412.099 69.2891 412.141C69.0599 412.183 68.7682 412.203 68.4141 412.203ZM70.1328 406.664C70.1224 406.268 70.0755 405.927 69.9922 405.641C69.9089 405.354 69.7891 405.112 69.6328 404.914C69.4609 404.696 69.2396 404.529 68.9688 404.414C68.7031 404.3 68.3724 404.242 67.9766 404.242C67.5859 404.242 67.2526 404.302 66.9766 404.422C66.7057 404.537 66.4583 404.706 66.2344 404.93C66.0156 405.159 65.849 405.414 65.7344 405.696C65.6198 405.972 65.5469 406.295 65.5156 406.664H70.1328ZM79.9062 412H78.4375V407.031C78.4375 406.63 78.4167 406.258 78.375 405.914C78.3385 405.565 78.2656 405.287 78.1562 405.078C78.0365 404.86 77.8698 404.698 77.6562 404.594C77.4427 404.485 77.151 404.43 76.7812 404.43C76.4167 404.43 76.0391 404.529 75.6484 404.727C75.263 404.92 74.8854 405.172 74.5156 405.485V412H73.0469V403.274H74.5156V404.242C74.9531 403.852 75.3854 403.552 75.8125 403.344C76.2396 403.136 76.6901 403.031 77.1641 403.031C78.0234 403.031 78.6953 403.315 79.1797 403.883C79.6641 404.446 79.9062 405.263 79.9062 406.336V412ZM84.6094 412.172C83.8073 412.172 83.1823 411.946 82.7344 411.492C82.2865 411.034 82.0625 410.313 82.0625 409.328V404.492H81.0703V403.274H82.0625V400.766H83.5312V403.274H86.2344V404.492H83.5312V408.641C83.5312 409.084 83.5391 409.425 83.5547 409.664C83.5703 409.904 83.6302 410.128 83.7344 410.336C83.8229 410.518 83.9661 410.656 84.1641 410.75C84.362 410.839 84.6302 410.883 84.9688 410.883C85.2083 410.883 85.4401 410.849 85.6641 410.781C85.888 410.709 86.0495 410.649 86.1484 410.602H86.2344V411.922C85.9583 412 85.6771 412.06 85.3906 412.102C85.1094 412.149 84.849 412.172 84.6094 412.172ZM98.1328 407.61C98.1328 406.568 97.974 405.779 97.6562 405.242C97.3385 404.701 96.8281 404.43 96.125 404.43C95.724 404.43 95.3177 404.524 94.9062 404.711C94.5 404.899 94.1302 405.136 93.7969 405.422V410.422C94.1667 410.604 94.4948 410.735 94.7812 410.813C95.0677 410.886 95.3828 410.922 95.7266 410.922C96.4766 410.922 97.0651 410.656 97.4922 410.125C97.9193 409.594 98.1328 408.755 98.1328 407.61ZM99.6484 407.492C99.6484 408.92 99.3021 410.068 98.6094 410.938C97.9167 411.808 97.0495 412.242 96.0078 412.242C95.5339 412.242 95.1276 412.183 94.7891 412.063C94.4557 411.948 94.125 411.792 93.7969 411.594L93.7031 412H92.3281V399.844H93.7969V404.188C94.1667 403.854 94.5677 403.578 95 403.36C95.4323 403.141 95.9219 403.031 96.4688 403.031C97.4531 403.031 98.2292 403.427 98.7969 404.219C99.3646 405.005 99.6484 406.097 99.6484 407.492ZM104.961 412.203C103.57 412.203 102.49 411.813 101.719 411.031C100.953 410.245 100.57 409.13 100.57 407.688C100.57 406.266 100.943 405.136 101.688 404.297C102.432 403.453 103.406 403.031 104.609 403.031C105.151 403.031 105.63 403.11 106.047 403.266C106.464 403.422 106.828 403.667 107.141 404C107.453 404.334 107.693 404.742 107.859 405.227C108.026 405.706 108.109 406.295 108.109 406.992V407.789H102.062C102.062 408.805 102.318 409.581 102.828 410.117C103.339 410.654 104.044 410.922 104.945 410.922C105.268 410.922 105.583 410.886 105.891 410.813C106.203 410.74 106.484 410.646 106.734 410.531C107 410.412 107.224 410.297 107.406 410.188C107.589 410.073 107.74 409.966 107.859 409.867H107.945V411.469C107.773 411.537 107.56 411.623 107.305 411.727C107.049 411.826 106.82 411.904 106.617 411.961C106.331 412.039 106.07 412.099 105.836 412.141C105.607 412.183 105.315 412.203 104.961 412.203ZM106.68 406.664C106.669 406.268 106.622 405.927 106.539 405.641C106.456 405.354 106.336 405.112 106.18 404.914C106.008 404.696 105.786 404.529 105.516 404.414C105.25 404.3 104.919 404.242 104.523 404.242C104.133 404.242 103.799 404.302 103.523 404.422C103.253 404.537 103.005 404.706 102.781 404.93C102.562 405.159 102.396 405.414 102.281 405.696C102.167 405.972 102.094 406.295 102.062 406.664H106.68ZM111.953 412.211C111.37 412.211 110.823 412.133 110.312 411.977C109.807 411.821 109.388 411.654 109.055 411.477V409.828H109.133C109.258 409.927 109.404 410.037 109.57 410.156C109.742 410.276 109.969 410.401 110.25 410.531C110.5 410.646 110.773 410.748 111.07 410.836C111.372 410.925 111.685 410.969 112.008 410.969C112.242 410.969 112.492 410.943 112.758 410.891C113.023 410.834 113.221 410.763 113.352 410.68C113.534 410.56 113.664 410.433 113.742 410.297C113.826 410.162 113.867 409.959 113.867 409.688C113.867 409.339 113.771 409.076 113.578 408.899C113.391 408.722 113.055 408.573 112.57 408.453C112.383 408.406 112.138 408.352 111.836 408.289C111.534 408.227 111.255 408.159 111 408.086C110.333 407.893 109.849 407.597 109.547 407.196C109.245 406.789 109.094 406.3 109.094 405.727C109.094 404.94 109.391 404.3 109.984 403.805C110.578 403.31 111.367 403.063 112.352 403.063C112.836 403.063 113.323 403.123 113.812 403.242C114.302 403.362 114.714 403.513 115.047 403.696V405.266H114.969C114.594 404.969 114.174 404.735 113.711 404.563C113.253 404.391 112.789 404.305 112.32 404.305C111.836 404.305 111.427 404.406 111.094 404.61C110.76 404.813 110.594 405.12 110.594 405.531C110.594 405.896 110.693 406.17 110.891 406.352C111.089 406.529 111.406 406.675 111.844 406.789C112.062 406.847 112.305 406.904 112.57 406.961C112.841 407.013 113.125 407.076 113.422 407.149C114.068 407.31 114.552 407.578 114.875 407.953C115.203 408.328 115.367 408.839 115.367 409.485C115.367 409.86 115.292 410.216 115.141 410.555C114.995 410.888 114.779 411.175 114.492 411.414C114.18 411.675 113.826 411.873 113.43 412.008C113.039 412.143 112.547 412.211 111.953 412.211ZM123.914 407.641C123.914 409.11 123.56 410.245 122.852 411.047C122.143 411.844 121.201 412.242 120.023 412.242C118.81 412.242 117.854 411.831 117.156 411.008C116.464 410.18 116.117 409.058 116.117 407.641C116.117 406.183 116.474 405.05 117.188 404.242C117.906 403.435 118.852 403.031 120.023 403.031C121.201 403.031 122.143 403.435 122.852 404.242C123.56 405.045 123.914 406.177 123.914 407.641ZM122.398 407.641C122.398 406.511 122.193 405.672 121.781 405.125C121.37 404.573 120.784 404.297 120.023 404.297C119.258 404.297 118.667 404.573 118.25 405.125C117.839 405.672 117.633 406.511 117.633 407.641C117.633 408.735 117.839 409.565 118.25 410.133C118.667 410.696 119.258 410.977 120.023 410.977C120.779 410.977 121.362 410.701 121.773 410.149C122.19 409.591 122.398 408.755 122.398 407.641ZM126.922 412H125.453V403.274H126.922V412ZM127.023 401.813H125.352V400.289H127.023V401.813ZM135.938 412H134.469V407.031C134.469 406.63 134.448 406.258 134.406 405.914C134.37 405.565 134.297 405.287 134.188 405.078C134.068 404.86 133.901 404.698 133.688 404.594C133.474 404.485 133.182 404.43 132.812 404.43C132.448 404.43 132.07 404.529 131.68 404.727C131.294 404.92 130.917 405.172 130.547 405.485V412H129.078V403.274H130.547V404.242C130.984 403.852 131.417 403.552 131.844 403.344C132.271 403.136 132.721 403.031 133.195 403.031C134.055 403.031 134.727 403.315 135.211 403.883C135.695 404.446 135.938 405.263 135.938 406.336V412ZM149.719 412H148.25V411.11C148.021 411.302 147.823 411.461 147.656 411.586C147.49 411.711 147.294 411.826 147.07 411.93C146.862 412.029 146.646 412.104 146.422 412.156C146.198 412.214 145.938 412.242 145.641 412.242C145.167 412.242 144.727 412.143 144.32 411.946C143.919 411.748 143.578 411.459 143.297 411.078C143.01 410.693 142.789 410.219 142.633 409.656C142.477 409.089 142.398 408.438 142.398 407.703C142.398 406.938 142.497 406.276 142.695 405.719C142.893 405.156 143.167 404.667 143.516 404.25C143.833 403.87 144.216 403.573 144.664 403.36C145.117 403.141 145.591 403.031 146.086 403.031C146.523 403.031 146.904 403.081 147.227 403.18C147.549 403.274 147.891 403.422 148.25 403.625V399.844H149.719V412ZM148.25 409.875V404.844C147.885 404.667 147.557 404.545 147.266 404.477C146.979 404.409 146.667 404.375 146.328 404.375C145.573 404.375 144.982 404.659 144.555 405.227C144.128 405.789 143.914 406.604 143.914 407.672C143.914 408.698 144.078 409.485 144.406 410.031C144.734 410.573 145.26 410.844 145.984 410.844C146.37 410.844 146.758 410.758 147.148 410.586C147.539 410.409 147.906 410.172 148.25 409.875ZM154.656 399.844L152.617 404.211H151.539L152.766 399.844H154.656ZM159.008 412.203C157.617 412.203 156.536 411.813 155.766 411.031C155 410.245 154.617 409.13 154.617 407.688C154.617 406.266 154.99 405.136 155.734 404.297C156.479 403.453 157.453 403.031 158.656 403.031C159.198 403.031 159.677 403.11 160.094 403.266C160.51 403.422 160.875 403.667 161.188 404C161.5 404.334 161.74 404.742 161.906 405.227C162.073 405.706 162.156 406.295 162.156 406.992V407.789H156.109C156.109 408.805 156.365 409.581 156.875 410.117C157.385 410.654 158.091 410.922 158.992 410.922C159.315 410.922 159.63 410.886 159.938 410.813C160.25 410.74 160.531 410.646 160.781 410.531C161.047 410.412 161.271 410.297 161.453 410.188C161.635 410.073 161.786 409.966 161.906 409.867H161.992V411.469C161.82 411.537 161.607 411.623 161.352 411.727C161.096 411.826 160.867 411.904 160.664 411.961C160.378 412.039 160.117 412.099 159.883 412.141C159.654 412.183 159.362 412.203 159.008 412.203ZM160.727 406.664C160.716 406.268 160.669 405.927 160.586 405.641C160.503 405.354 160.383 405.112 160.227 404.914C160.055 404.696 159.833 404.529 159.562 404.414C159.297 404.3 158.966 404.242 158.57 404.242C158.18 404.242 157.846 404.302 157.57 404.422C157.299 404.537 157.052 404.706 156.828 404.93C156.609 405.159 156.443 405.414 156.328 405.696C156.214 405.972 156.141 406.295 156.109 406.664H160.727ZM161.305 401.867H160.062L158.617 399.867L157.18 401.867H155.969L157.75 398.906H159.523L161.305 401.867ZM166.281 412.172C165.479 412.172 164.854 411.946 164.406 411.492C163.958 411.034 163.734 410.313 163.734 409.328V404.492H162.742V403.274H163.734V400.766H165.203V403.274H167.906V404.492H165.203V408.641C165.203 409.084 165.211 409.425 165.227 409.664C165.242 409.904 165.302 410.128 165.406 410.336C165.495 410.518 165.638 410.656 165.836 410.75C166.034 410.839 166.302 410.883 166.641 410.883C166.88 410.883 167.112 410.849 167.336 410.781C167.56 410.709 167.721 410.649 167.82 410.602H167.906V411.922C167.63 412 167.349 412.06 167.062 412.102C166.781 412.149 166.521 412.172 166.281 412.172ZM173.625 404.852H173.547C173.438 404.821 173.32 404.802 173.195 404.797C173.076 404.787 172.93 404.781 172.758 404.781C172.362 404.781 171.969 404.867 171.578 405.039C171.188 405.211 170.818 405.466 170.469 405.805V412H169V403.274H170.469V404.571C171.005 404.097 171.471 403.763 171.867 403.571C172.268 403.373 172.656 403.274 173.031 403.274C173.182 403.274 173.294 403.279 173.367 403.289C173.445 403.295 173.531 403.305 173.625 403.321V404.852ZM178.477 412.203C177.086 412.203 176.005 411.813 175.234 411.031C174.469 410.245 174.086 409.13 174.086 407.688C174.086 406.266 174.458 405.136 175.203 404.297C175.948 403.453 176.922 403.031 178.125 403.031C178.667 403.031 179.146 403.11 179.562 403.266C179.979 403.422 180.344 403.667 180.656 404C180.969 404.334 181.208 404.742 181.375 405.227C181.542 405.706 181.625 406.295 181.625 406.992V407.789H175.578C175.578 408.805 175.833 409.581 176.344 410.117C176.854 410.654 177.56 410.922 178.461 410.922C178.784 410.922 179.099 410.886 179.406 410.813C179.719 410.74 180 410.646 180.25 410.531C180.516 410.412 180.74 410.297 180.922 410.188C181.104 410.073 181.255 409.966 181.375 409.867H181.461V411.469C181.289 411.537 181.076 411.623 180.82 411.727C180.565 411.826 180.336 411.904 180.133 411.961C179.846 412.039 179.586 412.099 179.352 412.141C179.122 412.183 178.831 412.203 178.477 412.203ZM180.195 406.664C180.185 406.268 180.138 405.927 180.055 405.641C179.971 405.354 179.852 405.112 179.695 404.914C179.523 404.696 179.302 404.529 179.031 404.414C178.766 404.3 178.435 404.242 178.039 404.242C177.648 404.242 177.315 404.302 177.039 404.422C176.768 404.537 176.521 404.706 176.297 404.93C176.078 405.159 175.911 405.414 175.797 405.696C175.682 405.972 175.609 406.295 175.578 406.664H180.195ZM189.609 412H188.141V399.844H189.609V412ZM193.281 412H191.812V403.274H193.281V412ZM193.383 401.813H191.711V400.289H193.383V401.813ZM202.297 412H200.828V407.031C200.828 406.63 200.807 406.258 200.766 405.914C200.729 405.565 200.656 405.287 200.547 405.078C200.427 404.86 200.26 404.698 200.047 404.594C199.833 404.485 199.542 404.43 199.172 404.43C198.807 404.43 198.43 404.529 198.039 404.727C197.654 404.92 197.276 405.172 196.906 405.485V412H195.438V403.274H196.906V404.242C197.344 403.852 197.776 403.552 198.203 403.344C198.63 403.136 199.081 403.031 199.555 403.031C200.414 403.031 201.086 403.315 201.57 403.883C202.055 404.446 202.297 405.263 202.297 406.336V412ZM208.148 412.203C206.758 412.203 205.677 411.813 204.906 411.031C204.141 410.245 203.758 409.13 203.758 407.688C203.758 406.266 204.13 405.136 204.875 404.297C205.62 403.453 206.594 403.031 207.797 403.031C208.339 403.031 208.818 403.11 209.234 403.266C209.651 403.422 210.016 403.667 210.328 404C210.641 404.334 210.88 404.742 211.047 405.227C211.214 405.706 211.297 406.295 211.297 406.992V407.789H205.25C205.25 408.805 205.505 409.581 206.016 410.117C206.526 410.654 207.232 410.922 208.133 410.922C208.456 410.922 208.771 410.886 209.078 410.813C209.391 410.74 209.672 410.646 209.922 410.531C210.188 410.412 210.411 410.297 210.594 410.188C210.776 410.073 210.927 409.966 211.047 409.867H211.133V411.469C210.961 411.537 210.747 411.623 210.492 411.727C210.237 411.826 210.008 411.904 209.805 411.961C209.518 412.039 209.258 412.099 209.023 412.141C208.794 412.183 208.503 412.203 208.148 412.203ZM209.867 406.664C209.857 406.268 209.81 405.927 209.727 405.641C209.643 405.354 209.523 405.112 209.367 404.914C209.195 404.696 208.974 404.529 208.703 404.414C208.438 404.3 208.107 404.242 207.711 404.242C207.32 404.242 206.987 404.302 206.711 404.422C206.44 404.537 206.193 404.706 205.969 404.93C205.75 405.159 205.583 405.414 205.469 405.696C205.354 405.972 205.281 406.295 205.25 406.664H209.867ZM210.242 398.906L208.109 401.828H206.945L208.344 398.906H210.242ZM217.656 409.852V407.43C217.307 407.461 216.865 407.505 216.328 407.563C215.797 407.615 215.367 407.69 215.039 407.789C214.648 407.909 214.326 408.094 214.07 408.344C213.815 408.589 213.688 408.933 213.688 409.375C213.688 409.875 213.828 410.253 214.109 410.508C214.391 410.763 214.802 410.891 215.344 410.891C215.807 410.891 216.227 410.792 216.602 410.594C216.977 410.391 217.328 410.143 217.656 409.852ZM217.656 411.071C217.536 411.159 217.375 411.284 217.172 411.446C216.974 411.602 216.781 411.727 216.594 411.821C216.333 411.956 216.081 412.06 215.836 412.133C215.596 412.206 215.258 412.242 214.82 412.242C214.461 412.242 214.12 412.175 213.797 412.039C213.474 411.904 213.19 411.714 212.945 411.469C212.711 411.229 212.523 410.935 212.383 410.586C212.242 410.232 212.172 409.86 212.172 409.469C212.172 408.865 212.299 408.352 212.555 407.93C212.81 407.503 213.214 407.164 213.766 406.914C214.255 406.69 214.833 406.537 215.5 406.453C216.167 406.365 216.885 406.3 217.656 406.258V405.977C217.656 405.633 217.604 405.357 217.5 405.149C217.396 404.935 217.25 404.771 217.062 404.656C216.875 404.537 216.646 404.459 216.375 404.422C216.104 404.38 215.826 404.36 215.539 404.36C215.201 404.36 214.802 404.412 214.344 404.516C213.885 404.615 213.427 404.761 212.969 404.953H212.883V403.461C213.154 403.383 213.542 403.297 214.047 403.203C214.552 403.11 215.052 403.063 215.547 403.063C216.146 403.063 216.651 403.11 217.062 403.203C217.474 403.297 217.844 403.466 218.172 403.711C218.49 403.951 218.727 404.261 218.883 404.641C219.039 405.021 219.117 405.485 219.117 406.031V412H217.656V411.071ZM222.688 412H221.219V403.274H222.688V412ZM222.789 401.813H221.117V400.289H222.789V401.813ZM229.469 404.852H229.391C229.281 404.821 229.164 404.802 229.039 404.797C228.919 404.787 228.773 404.781 228.602 404.781C228.206 404.781 227.812 404.867 227.422 405.039C227.031 405.211 226.661 405.466 226.312 405.805V412H224.844V403.274H226.312V404.571C226.849 404.097 227.315 403.763 227.711 403.571C228.112 403.373 228.5 403.274 228.875 403.274C229.026 403.274 229.138 403.279 229.211 403.289C229.289 403.295 229.375 403.305 229.469 403.321V404.852ZM234.32 412.203C232.93 412.203 231.849 411.813 231.078 411.031C230.312 410.245 229.93 409.13 229.93 407.688C229.93 406.266 230.302 405.136 231.047 404.297C231.792 403.453 232.766 403.031 233.969 403.031C234.51 403.031 234.99 403.11 235.406 403.266C235.823 403.422 236.188 403.667 236.5 404C236.812 404.334 237.052 404.742 237.219 405.227C237.385 405.706 237.469 406.295 237.469 406.992V407.789H231.422C231.422 408.805 231.677 409.581 232.188 410.117C232.698 410.654 233.404 410.922 234.305 410.922C234.628 410.922 234.943 410.886 235.25 410.813C235.562 410.74 235.844 410.646 236.094 410.531C236.359 410.412 236.583 410.297 236.766 410.188C236.948 410.073 237.099 409.966 237.219 409.867H237.305V411.469C237.133 411.537 236.919 411.623 236.664 411.727C236.409 411.826 236.18 411.904 235.977 411.961C235.69 412.039 235.43 412.099 235.195 412.141C234.966 412.183 234.674 412.203 234.32 412.203ZM236.039 406.664C236.029 406.268 235.982 405.927 235.898 405.641C235.815 405.354 235.695 405.112 235.539 404.914C235.367 404.696 235.146 404.529 234.875 404.414C234.609 404.3 234.279 404.242 233.883 404.242C233.492 404.242 233.159 404.302 232.883 404.422C232.612 404.537 232.365 404.706 232.141 404.93C231.922 405.159 231.755 405.414 231.641 405.696C231.526 405.972 231.453 406.295 231.422 406.664H236.039Z" fill="black"/>
</mask>
<g mask="url(#mask0_78_3373)">
<path fill-rule="evenodd" clip-rule="evenodd" d="M115.91 -15.6538C95.8225 -15.6538 79.3462 0.846352 79.3462 21.4389C79.3462 42.0315 95.8225 58.5317 115.91 58.5317H116.023L116.137 58.5342L209.264 60.6508L209.264 60.6627C240.011 61.3528 264.543 86.747 264.543 117.741C264.543 148.735 240.011 174.129 209.264 174.819L209.264 174.831L116.137 176.948L116.023 176.95H115.91C95.8225 176.95 79.3462 193.45 79.3462 214.043C79.3462 234.636 95.8225 251.136 115.91 251.136H328V271.136H115.91C84.5644 271.136 59.3462 245.468 59.3462 214.043C59.3462 182.658 84.5005 157.015 115.791 156.95L207.979 154.855V154.834C228.066 154.834 244.543 138.334 244.543 117.741C244.543 97.1484 228.066 80.6483 207.979 80.6483V80.6267L115.791 78.5315C84.5005 78.4666 59.3462 52.8237 59.3462 21.4389C59.3462 -9.98569 84.5644 -35.6538 115.91 -35.6538V-15.6538Z" fill="#2175D9"/>
<ellipse cx="72.2427" cy="212.868" rx="26.8678" ry="26.0833" transform="rotate(-90 72.2427 212.868)" fill="black"/>
<ellipse cx="250.928" cy="119.553" rx="26.8678" ry="26.0833" transform="rotate(180 250.928 119.553)" fill="#FBB511"/>
<mask id="mask1_78_3373" style="mask-type:alpha" maskUnits="userSpaceOnUse" x="34" y="185" width="68" height="28">
<rect x="34" y="212.867" width="26.8678" height="67.8559" transform="rotate(-90 34 212.867)" fill="#E74536"/>
</mask>
<g mask="url(#mask1_78_3373)">
<ellipse cx="72.2425" cy="212.867" rx="26.8678" ry="26.0833" transform="rotate(-90 72.2425 212.867)" fill="#E74536"/>
</g>
<mask id="mask2_78_3373" style="mask-type:alpha" maskUnits="userSpaceOnUse" x="224" y="89" width="27" height="69">
<rect x="250.927" y="157.795" width="26.8678" height="67.8559" transform="rotate(180 250.927 157.795)" fill="#E74536"/>
</mask>
<g mask="url(#mask2_78_3373)">
<ellipse cx="250.928" cy="119.553" rx="26.8678" ry="26.0833" transform="rotate(180 250.928 119.553)" fill="#E74536"/>
</g>
</g>
</svg>
