<svg width="16" height="15" viewBox="0 0 16 15" fill="none" xmlns="http://www.w3.org/2000/svg">
<path d="M8.05964 14.7004C8.02924 14.7004 7.9988 14.6996 7.9684 14.6988C7.5596 14.6748 7.12759 14.602 6.73638 14.4164C6.41958 14.266 6.21717 14.1052 6.05397 13.9764L5.93397 13.8828C5.57556 13.5884 5.32756 13.3388 5.08756 13.098L4.88595 12.8964C4.28594 12.29 3.70753 11.6707 3.10992 10.9987C2.41071 10.2059 1.8939 9.57391 1.43389 8.9467C1.18029 8.59069 0.900285 8.19708 0.64508 7.73148C0.527478 7.53387 0.405876 7.27387 0.284274 6.95946C0.157872 6.61626 0.0994713 6.31785 0.0586709 6.06985C-0.120532 4.86663 0.113872 3.65461 0.719482 2.64579C1.35549 1.56897 2.39791 0.768961 3.57553 0.456155C4.78835 0.120151 6.15237 0.331353 7.21399 1.01936C7.4972 1.19937 7.7604 1.40817 8.00044 1.64418C8.23884 1.40977 8.49804 1.20337 8.77805 1.02336C9.83247 0.334553 11.1949 0.120951 12.4173 0.454555C13.5885 0.76096 14.6341 1.55937 15.2766 2.64099C15.8822 3.64581 16.1198 4.85783 15.943 6.05145C15.8846 6.40425 15.8174 6.67306 15.723 6.93546C15.5878 7.28347 15.4702 7.53707 15.3446 7.74908C15.1014 8.19548 14.8094 8.60509 14.5749 8.9347C14.1069 9.57311 13.5901 10.2059 12.8933 10.9939C12.3149 11.6475 11.7189 12.2844 11.1213 12.8892L10.9013 13.11C10.6653 13.3492 10.4205 13.5956 10.0845 13.866C9.66846 14.258 8.89325 14.7004 8.05964 14.7004Z" fill="#E74536"/>
</svg>
